<?xml version="1.0" encoding="utf-8"?>
<!-- Generator: Adobe Illustrator 21.0.1, SVG Export Plug-In . SVG Version: 6.00 Build 0)  -->
<svg version="1.1" id="Layer_1" xmlns="http://www.w3.org/2000/svg" xmlns:xlink="http://www.w3.org/1999/xlink" x="0px" y="0px"
	 viewBox="0 0 100 100" style="enable-background:new 0 0 100 100;" xml:space="preserve">
<style type="text/css">
	.st0{fill:#3A3A3A;}
	.st1{fill:#FFFFFF;}
</style>
<g>
	<circle class="st0" cx="50" cy="50" r="49"/>
</g>
<g>
	<path class="st1" d="M49.7,15.3c-19.5,0-35.3,15.8-35.3,35.3S30.2,86,49.7,86S85,70.2,85,50.7S69.2,15.3,49.7,15.3z M49.5,48.3
		c-3.2,0-5.7-2.6-5.7-5.7s2.6-5.7,5.7-5.7s5.7,2.6,5.7,5.7S52.6,48.3,49.5,48.3z M32.4,69c0-5.9,5.2-10.9,11.4-10.9h11.8
		c6.2,0,11.4,5,11.4,10.9v4.9c-4.8,3.6-10.8,5.7-17.2,5.7s-12.4-2.1-17.2-5.7V69z M57.3,51.8c2.6-2.2,4.3-5.5,4.3-9.2
		c0-6.7-5.4-12.1-12.1-12.1s-12.1,5.4-12.1,12.1c0,3.7,1.7,7.1,4.3,9.3c-8.1,1-14.8,7.6-15.5,15.6c-3.4-4.7-5.4-10.5-5.4-16.8
		c0-16,13-28.9,28.9-28.9s28.9,13,28.9,28.9c0,6.3-2,12.1-5.4,16.8C72.4,59.4,65.6,52.7,57.3,51.8z"/>
</g>
</svg>
