<?xml version="1.0" encoding="utf-8"?>
<!-- Generator: Adobe Illustrator 23.0.2, SVG Export Plug-In . SVG Version: 6.00 Build 0)  -->
<svg version="1.1" id="Layer_1" xmlns="http://www.w3.org/2000/svg" xmlns:xlink="http://www.w3.org/1999/xlink" x="0px" y="0px"
	 viewBox="0 0 24 24" style="enable-background:new 0 0 24 24;" xml:space="preserve">
<style type="text/css">
	.st0{fill:#C1C0C8;}
</style>
<title>Settings</title>
<desc>Created with Sketch.</desc>
<g id="Symbols">
	<g transform="translate(-3.000000, -3.000000)">
		<g id="Settings">
			<path class="st0" d="M26,12.9l-1.6-0.3c-0.6-0.1-1-0.5-1.2-1.1c-0.2-0.5-0.2-1.1,0.1-1.6l0.9-1.2c0.4-0.5,0.3-1.2-0.1-1.6
				l-1.3-1.3c-0.4-0.4-1.1-0.5-1.6-0.1L20,6.6c-0.5,0.3-1.1,0.3-1.6,0.1c-0.5-0.3-0.8-0.7-1-1.2L17.1,4c-0.1-0.6-0.6-1-1.2-1h-1.9
				c-0.6,0-1.1,0.4-1.2,1l-0.3,1.6c-0.1,0.5-0.5,1-1,1.2C11,6.9,10.5,6.9,10,6.6L8.8,5.7C8.3,5.4,7.6,5.5,7.2,5.9L5.9,7.2
				C5.4,7.6,5.4,8.3,5.7,8.8L6.6,10c0.3,0.5,0.3,1.1,0.1,1.6c-0.2,0.5-0.7,0.9-1.2,1L4,12.9c-0.6,0.1-1,0.6-1,1.2v1.9
				c0,0.6,0.4,1.1,1,1.2l1.6,0.3c0.6,0.1,1,0.5,1.2,1.1s0.2,1.1-0.1,1.6l-0.9,1.2c-0.4,0.5-0.3,1.2,0.1,1.6l1.3,1.3
				c0.4,0.4,1.1,0.5,1.6,0.1l1.2-0.9c0.5-0.3,1.1-0.3,1.6-0.1c0.5,0.2,0.9,0.7,1,1.2l0.3,1.6c0.1,0.6,0.6,1,1.2,1h1.9
				c0.6,0,1.1-0.4,1.2-1l0.3-1.6c0.1-0.6,0.5-1,1.1-1.2s1.1-0.2,1.6,0.1l1.2,0.9c0.5,0.3,1.1,0.2,1.5-0.1l1.3-1.3
				c0.4-0.4,0.5-1.1,0.1-1.6L23.4,20c-0.3-0.5-0.3-1.1-0.1-1.6c0.2-0.5,0.7-0.9,1.2-1l1.6-0.3c0.6-0.1,1-0.6,1-1.2v-1.9
				C27,13.5,26.6,13,26,12.9z M19.3,15c0,2.4-1.9,4.3-4.3,4.3s-4.3-1.9-4.3-4.3s1.9-4.3,4.3-4.3S19.3,12.6,19.3,15z"/>
		</g>
	</g>
</g>
</svg>
