<?xml version="1.0" encoding="utf-8"?>
<!-- Generator: Adobe Illustrator 23.0.2, SVG Export Plug-In . SVG Version: 6.00 Build 0)  -->
<svg version="1.1" id="Layer_1" xmlns="http://www.w3.org/2000/svg" xmlns:xlink="http://www.w3.org/1999/xlink" x="0px" y="0px"
	 viewBox="0 0 22 22" style="enable-background:new 0 0 22 22;" xml:space="preserve">
<style type="text/css">
	.st0{fill:#C1C0C8;}
</style>
<title>Wallet</title>
<desc>Created with Sketch.</desc>
<g id="Symbols">
	<g transform="translate(-4.000000, -4.000000)">
		<g id="Wallet">
			<path class="st0" d="M23.8,8.4H4V23c0,1.6,1.3,3,3,3h17c1.1,0,2-0.9,2-2V10.6C26,9.5,24.9,8.4,23.8,8.4z M21.6,8.4V7.7
				c0-0.8-0.7-1.5-1.5-1.5H7.7c-0.8,0-1.5,0.7-1.5,1.5v0.7H4V8c0-2.2,1.8-4,4-4h11.8c2.2,0,4,1.8,4,4v0.4H21.6z M22,19
				c-1.1,0-2-0.9-2-2s0.9-2,2-2s2,0.9,2,2S23.1,19,22,19z"/>
		</g>
	</g>
</g>
</svg>
