<?xml version="1.0" encoding="UTF-8"?>
<svg width="24px" height="24px" viewBox="0 0 24 24" version="1.1" xmlns="http://www.w3.org/2000/svg" xmlns:xlink="http://www.w3.org/1999/xlink">
    <!-- Generator: Sketch 53.2 (72643) - https://sketchapp.com -->
    <title>icons/notification</title>
    <desc>Created with Sketch.</desc>
    <defs>
        <path d="M15,3 C21.6169412,3 27,8.38305882 27,15 C27,21.6169412 21.6169412,27 15,27 C8.38305882,27 3,21.6169412 3,15 C3,13.7647059 5.43714459,13.6475294 5.48937988,15 C5.69549753,20.3788235 9.61835294,24.5014648 15,24.5014648 C20.3816471,24.5014648 24.5233765,20.3830588 24.5233765,15 C24.5233765,9.61835294 20.3830588,5.45123291 15,5.45123291 C11.8630588,5.45123291 9.08611765,6.72 7.28611765,9 L9.00338779,10.7172701 C9.09715598,10.8110383 9.1498344,10.9382153 9.1498344,11.0708235 C9.1498344,11.3469659 8.92597677,11.5708235 8.6498344,11.5708235 L3.2,11.5708235 C3.08954305,11.5708235 3,11.4812805 3,11.3708235 L3,5.92098913 C3,5.78838089 3.05267842,5.66120393 3.14644661,5.56743574 C3.34170876,5.3721736 3.65829124,5.3721736 3.85355339,5.56743574 L5.72611765,7.44 C7.92,4.74917647 11.2461176,3 15,3 Z M15.9979401,9.00372314 C16.9954071,9.00372314 16.9980469,9.45193481 16.9980469,10.0000305 C16.9980469,10.3654277 16.9980469,12.3739421 16.9980469,16.0255737 C16.9980469,17.0081177 15.9902954,18.0022583 14.9769897,18.0022583 L11.0004706,18.0022583 C11.0004706,18.0022583 10.0029297,17.9638672 10.0029297,16.9857178 C10.0029297,16.0075684 11.0004706,16.0255737 11.0004706,16.0255737 L15.039978,16.0255737 L15.000473,10.0000305 C15.000473,9.45613098 15.000473,9.00372314 15.9979401,9.00372314 Z" id="path-1"></path>
    </defs>
    <g id="Page-1" stroke="none" stroke-width="1" fill="none" fill-rule="evenodd">
        <g id="Menu" transform="translate(-33.000000, -438.000000)">
            <g id="Icons" transform="translate(30.000000, 315.000000)">
                <g id="icons/History" transform="translate(0.000000, 120.000000)">
                    <rect id="Rectangle" fill-opacity="0" fill="#FF0000" fill-rule="evenodd" x="0" y="0" width="30" height="30"></rect>
                    <mask id="mask-2" fill="white">
                        <use xlink:href="#path-1"></use>
                    </mask>
                    <use id="Shape" fill="#000000" fill-rule="nonzero" xlink:href="#path-1"></use>
                    <g id="color/Title-text-light-gray-2" mask="url(#mask-2)" fill="#C1C0C9" fill-rule="evenodd">
                        <rect id="color/Title-text-light-gray" x="0" y="0" width="30" height="30"></rect>
                    </g>
                </g>
            </g>
        </g>
    </g>
</svg>