<?xml version="1.0" encoding="UTF-8"?>
<svg width="24px" height="23px" viewBox="0 0 24 23" version="1.1" xmlns="http://www.w3.org/2000/svg" xmlns:xlink="http://www.w3.org/1999/xlink">
    <!-- Generator: Sketch 53.2 (72643) - https://sketchapp.com -->
    <title>icons/invitefriends</title>
    <desc>Created with Sketch.</desc>
    <defs>
        <path d="M4.5,15.9711254 L4.5,24.9711254 C4.5,25.7991254 5.1735,26.4711254 6,26.4711254 L13.5,26.4711254 L13.5,15.9711254 L4.5,15.9711254 Z M25.5,9.97112536 L20.754,9.97112536 C21.0945,9.73862536 21.387,9.50762536 21.591,9.30062536 C22.8015,8.08412536 22.8015,6.10412536 21.591,4.88762536 C20.415,3.70262536 18.366,3.70562536 17.1915,4.88762536 C16.5405,5.54012536 14.8155,8.19662536 15.054,9.97112536 L14.946,9.97112536 C15.183,8.19662536 13.458,5.54012536 12.8085,4.88762536 C11.6325,3.70562536 9.5835,3.70562536 8.409,4.88762536 C7.2,6.10412536 7.2,8.08412536 8.4075,9.30062536 C8.613,9.50762536 8.9055,9.73862536 9.246,9.97112536 L4.5,9.97112536 C3.6735,9.97112536 3,10.6446254 3,11.4711254 L3,13.7211254 C3,14.1351254 3.336,14.4711254 3.75,14.4711254 L13.5,14.4711254 L13.5,11.4711254 L16.5,11.4711254 L16.5,14.4711254 L26.25,14.4711254 C26.664,14.4711254 27,14.1351254 27,13.7211254 L27,11.4711254 C27,10.6446254 26.328,9.97112536 25.5,9.97112536 Z M13.4115,9.92162536 C13.4115,9.92162536 13.3485,9.97112536 13.134,9.97112536 C12.0975,9.97112536 10.119,8.89412536 9.4725,8.24312536 C8.844,7.61012536 8.844,6.57812536 9.4725,5.94512536 C9.777,5.63912536 10.1805,5.47112536 10.6095,5.47112536 C11.037,5.47112536 11.4405,5.63912536 11.745,5.94512536 C12.756,6.96212536 13.761,9.56012536 13.4115,9.92162536 Z M16.8645,9.97112536 C16.6515,9.97112536 16.5885,9.92312536 16.5885,9.92162536 C16.239,9.56012536 17.244,6.96212536 18.255,5.94512536 C18.8595,5.33462536 19.917,5.33162536 20.5275,5.94512536 C21.1575,6.57812536 21.1575,7.61012536 20.5275,8.24312536 C19.881,8.89412536 17.9025,9.97112536 16.8645,9.97112536 Z M16.5,15.9711254 L25.5,15.9711254 L25.5,24.9711254 C25.5,25.7991254 24.828,26.4711254 24,26.4711254 L16.5,26.4711254 L16.5,15.9711254 Z" id="path-1"></path>
    </defs>
    <g id="Page-1" stroke="none" stroke-width="1" fill="none" fill-rule="evenodd">
        <g id="Menu" transform="translate(-33.000000, -559.000000)">
            <g id="Icons" transform="translate(30.000000, 315.000000)">
                <g id="icons/gift" transform="translate(0.000000, 240.000000)">
                    <rect id="Rectangle" fill-opacity="0" fill="#FF0000" fill-rule="evenodd" x="0" y="0" width="30" height="30"></rect>
                    <mask id="mask-2" fill="white">
                        <use xlink:href="#path-1"></use>
                    </mask>
                    <use id="Shape" fill="#000000" fill-rule="nonzero" xlink:href="#path-1"></use>
                    <g id="color/Title-text-light-gray-2" mask="url(#mask-2)" fill="#C1C0C9" fill-rule="evenodd">
                        <rect id="color/Title-text-light-gray" x="0" y="0" width="30" height="30"></rect>
                    </g>
                </g>
            </g>
        </g>
    </g>
</svg>