<?xml version="1.0" encoding="utf-8"?>
<!-- Generator: Adobe Illustrator 21.0.1, SVG Export Plug-In . SVG Version: 6.00 Build 0)  -->
<svg version="1.1" id="Layer_1" xmlns="http://www.w3.org/2000/svg" xmlns:xlink="http://www.w3.org/1999/xlink" x="0px" y="0px"
	 viewBox="0 0 68 68" style="enable-background:new 0 0 68 68;" xml:space="preserve">
<style type="text/css">
	.st0{fill:#515252;}
</style>
<g>
	<g>
		<g>
			<path class="st0" d="M17.1,62.8H7.9c-1.1,0-1.8-0.6-2.1-1c-0.5-0.6-0.7-1.5-0.6-2.3c2.7-13.1,14.2-22.6,27.5-22.9
				c0.2,0,0.4,0,0.7,0c0.2,0,0.4,0,0.7,0c3.3,0.1,6.4,0.7,9.5,1.8c1.4,0.5,2.9-0.2,3.4-1.5c0.5-1.4-0.2-2.9-1.5-3.4
				c-0.4-0.2-0.9-0.3-1.3-0.5c4.3-3.2,7.1-8.4,7.1-14.2C51.2,9,43.2,1,33.4,1S15.6,9,15.6,18.8c0,5.8,2.8,11,7.2,14.3
				c-4,1.3-7.7,3.3-11,6C5.8,44,1.7,50.9,0.1,58.4c-0.5,2.4,0.1,4.8,1.6,6.7C3.2,66.9,5.5,68,7.9,68h9.3c1.4,0,2.6-1.2,2.6-2.6
				S18.6,62.8,17.1,62.8z M20.9,18.8c0-6.9,5.6-12.6,12.6-12.6S46,11.9,46,18.8c0,6.7-5.3,12.2-12,12.5c-0.2,0-0.4,0-0.6,0
				c-0.2,0-0.4,0-0.6,0C26.2,31,20.9,25.5,20.9,18.8z"/>
			<path class="st0" d="M64.9,46.1c-1.1-2.5-3.6-4.1-6.4-4.1h-8.2c0,0,0,0,0,0c-2.9,0-5.5,1.7-6.5,4.4c-0.1,0.4-0.3,0.8-0.5,1.3
				H26.1c-0.7,0-1.4,0.3-1.9,0.8l-4.5,4.6c-1,1-1,2.6,0,3.7l4.6,4.7c0.5,0.5,1.2,0.8,1.9,0.8h8.5c1.4,0,2.6-1.2,2.6-2.6
				c0-1.4-1.2-2.6-2.6-2.6h-7.4l-2-2.1l1.9-2h18c1.2,0,2.3-0.8,2.5-2c0.2-0.9,0.5-1.7,0.9-2.7c0.3-0.7,0.9-1.1,1.7-1.1c0,0,0,0,0,0
				h8.2c0.7,0,1.4,0.4,1.7,1c0.7,1.6,1.5,4,1.5,6.7c0,2.7-0.8,5.2-1.5,6.8c-0.3,0.7-0.9,1.1-1.6,1.1c0,0,0,0,0,0h-8.3
				c-0.7,0-1.4-0.5-1.7-1.2C48.2,60.9,48,60,47.7,59c-0.3-1.4-1.7-2.3-3.2-1.9c-1.4,0.3-2.3,1.7-1.9,3.2c0.3,1.3,0.7,2.4,1.1,3.4
				c1.1,2.7,3.7,4.4,6.5,4.4h8.3c0,0,0,0,0,0c2.8,0,5.3-1.7,6.4-4.2c0.9-2.1,2-5.3,2-8.9C66.9,51.3,65.8,48.1,64.9,46.1z"/>
			<circle class="st0" cx="56.3" cy="54.9" r="2.6"/>
		</g>
	</g>
</g>
</svg>
