<?xml version="1.0" encoding="utf-8"?>
<!-- Generator: Adobe Illustrator 21.0.1, SVG Export Plug-In . SVG Version: 6.00 Build 0)  -->
<svg version="1.1" id="Layer_1" xmlns="http://www.w3.org/2000/svg" xmlns:xlink="http://www.w3.org/1999/xlink" x="0px" y="0px"
	 viewBox="0 0 100 70" style="enable-background:new 0 0 100 70;" xml:space="preserve">
<style type="text/css">
	.st0{fill:#515252;}
</style>
<g>
	<g>
		<path class="st0" d="M6.3,64c0,1.4,1.1,2.6,2.6,2.6h83.2c1.4,0,2.6-1.1,2.6-2.6V20.9H6.3V64z M69.6,35.4c0-0.7,0.5-1.2,1.2-1.2
			h11.8c0.7,0,1.2,0.5,1.2,1.2v2.9c0,0.7-0.5,1.2-1.2,1.2H70.8c-0.7,0-1.2-0.5-1.2-1.2V35.4z M17.1,35.3c0-0.6,0.5-1.2,1.2-1.2h3.9
			v-3.9c0-0.6,0.5-1.2,1.2-1.2h3c0.6,0,1.2,0.5,1.2,1.2v3.9h3.9c0.6,0,1.2,0.5,1.2,1.2v3c0,0.6-0.5,1.2-1.2,1.2h-3.9v3.9
			c0,0.6-0.5,1.2-1.2,1.2h-3c-0.6,0-1.2-0.5-1.2-1.2v-3.9h-3.9c-0.6,0-1.2-0.5-1.2-1.2L17.1,35.3L17.1,35.3z"/>
		<path class="st0" d="M97.6,18.2c1.3,0,2.4-1.1,2.4-2.4v-4c0-1.3-1.1-2.4-2.4-2.4H84.2V4.9c0-1.3-1.1-2.4-2.4-2.4H71.5
			c-1.3,0-2.4,1.1-2.4,2.4v4.5H32.8V4.9c0-1.3-1.1-2.4-2.4-2.4H20.1c-1.3,0-2.4,1.1-2.4,2.4v4.5H3.3c-1.3,0-2.4,1.1-2.4,2.4v4
			c0,1.3,1.1,2.4,2.4,2.4h3h88.3L97.6,18.2L97.6,18.2z"/>
	</g>
</g>
</svg>
