<?xml version="1.0" encoding="UTF-8"?>
<svg width="38px" height="18px" viewBox="0 0 38 18" version="1.1" xmlns="http://www.w3.org/2000/svg" xmlns:xlink="http://www.w3.org/1999/xlink">
    <!-- Generator: Sketch 53.2 (72643) - https://sketchapp.com -->
    <title>car-black-side-silhouette</title>
    <desc>Created with Sketch.</desc>
    <g id="Page-1" stroke="none" stroke-width="1" fill="none" fill-rule="evenodd">
        <g id="Choose-Vehicle-type" transform="translate(-24.000000, -477.000000)" fill="#4CE5B1" fill-rule="nonzero">
            <g id="Intro" transform="translate(0.000000, 462.000000)">
                <g id="car-black-side-silhouette" transform="translate(24.000000, 15.000000)">
                    <path d="M37.1928213,7.69371012 C37.1408972,7.07651688 37.0826219,6.37807066 36.9688568,5.7753712 C36.8898563,5.35384392 36.7161445,4.79253955 36.1288226,4.79253955 C36.0699901,4.79253955 36.0110462,4.79824922 35.9528823,4.80417849 C35.9165577,4.80758233 35.8802331,4.81241359 35.820732,4.8135116 C35.8195063,4.8135116 35.8004526,4.79528458 35.7762734,4.72599995 C35.6037873,4.23925068 34.8803037,3.63380618 33.9525779,2.89330605 C33.724045,2.71158486 33.4504962,2.49275083 33.3339455,2.37987507 C33.3767328,2.08824275 33.3703815,1.73007083 33.1643564,1.48323746 C33.0686422,1.36805587 32.8885792,1.23047481 32.5781487,1.23047481 C32.5325758,1.23047481 32.4841059,1.23321984 32.3762463,1.24266276 C32.1522818,1.24266276 31.7034613,1.15196686 31.0820432,1.02536594 C29.4797495,0.701342231 26.4973439,0.0975447518 22.0252955,0.00256660688 C15.5138325,-0.124473525 10.3970782,4.50595809 10.1861503,4.70096525 L10.0352807,4.83909531 C9.76786033,4.96646485 8.92336911,5.27094392 6.34209406,5.77097914 C2.68088644,6.48139371 1.9824736,7.63079396 1.85054622,8.07526972 C1.55827805,8.29026071 1.084944,8.8030329 1.00995488,9.40628137 C0.949673871,9.88732097 0.813178061,10.0840849 0.813178061,10.0835359 L0.75,10.1638007 L0.75,13.5592968 L0.75713121,13.6212248 C0.955579404,14.5229132 1.90391886,15 3.49952703,15 C4.00840569,15 4.39014826,14.9488326 4.37532872,14.9488326 C4.39750232,14.9476248 4.59427914,14.9443307 4.9352401,14.9374132 C4.90036403,14.8424351 4.86860786,14.7463589 4.84119727,14.647977 C4.81467809,14.5531086 4.7903874,14.4575815 4.77166798,14.3597485 C4.72665222,14.1293853 4.70135871,13.8923242 4.70135871,13.6490045 C4.70135871,11.5623402 6.42410297,9.86459209 8.54162654,9.86459209 C10.6591501,9.86459209 12.3820058,11.5623402 12.3820058,13.6490045 C12.3820058,13.837753 12.3632864,14.0207918 12.3364329,14.2021836 C12.3217248,14.3005656 12.3046767,14.3982887 12.2821689,14.4938159 C12.2591039,14.5927469 12.2349246,14.6905799 12.2042827,14.786656 C16.9997983,14.6854192 23.1018853,14.551791 27.8278717,14.4347428 C27.8070352,14.3392156 27.7937756,14.2424807 27.780516,14.1446477 C27.7672564,14.0480225 27.7596795,13.9513974 27.7545539,13.8536742 C27.7510997,13.7853778 27.7441914,13.718399 27.7441914,13.6490045 C27.7441914,11.5623402 29.4670471,9.86459209 31.5844592,9.86459209 C33.6720094,9.86459209 35.3729143,11.5156746 35.42027,13.5625909 C35.42027,13.5910294 35.4248385,13.6199072 35.4248385,13.6490045 C35.4248385,13.7223518 35.4179301,13.7939423 35.4132502,13.8667405 C35.4074561,13.9701734 35.3970936,14.0730572 35.3832769,14.174294 C36.2855978,14.0275995 36.9641769,13.5590772 37.357062,12.8012285 C38.0291785,11.5054631 37.6865462,9.75094772 37.4453107,9.37839183 C37.3150547,9.1767966 37.2504281,8.3887525 37.1928213,7.69371012 Z" id="Shape"></path>
                    <path d="M6.03959641,15.8939752 C6.57870418,17.133131 7.81197922,18 9.24939992,18 C10.7384271,18 12.0067466,17.0684429 12.5126102,15.7584782 C12.5526952,15.6540651 12.5884597,15.5471316 12.6189435,15.4377979 C12.6481072,15.3333848 12.6723502,15.2264513 12.6922727,15.1183177 C12.7276772,14.9176525 12.75,14.7112266 12.75,14.50012 C12.75,12.566797 11.183323,11 9.25,11 C7.31667695,11 5.75,12.566797 5.75,14.50012 C5.75,14.762353 5.78108391,15.0176251 5.83605082,15.263776 C5.85933374,15.3707095 5.88729726,15.4757227 5.92114151,15.5782155 C5.95570586,15.6864692 5.99519082,15.7907623 6.03959641,15.8939752 Z" id="Shape"></path>
                    <path d="M28.8556133,15.3421914 C29.2334208,16.867197 30.6081936,18 32.25,18 C33.9664558,18 35.3915149,16.7627857 35.6897524,15.1326487 C35.7089548,15.0270372 35.7238367,14.9207057 35.734398,14.8119739 C35.7437592,14.7088827 35.75,14.6056715 35.75,14.50006 C35.75,14.4975397 35.75,14.4950195 35.75,14.4918991 C35.7462795,12.5630497 34.1802027,11 32.25,11 C30.317277,11 28.75,12.5667701 28.75,14.50006 C28.75,14.5702676 28.7568409,14.638555 28.7605613,14.7081626 C28.7668021,14.8156943 28.7773634,14.9211857 28.7934455,15.0257171 C28.8096475,15.1327687 28.8307702,15.2383802 28.8556133,15.3421914 Z" id="Shape"></path>
                </g>
            </g>
        </g>
    </g>
</svg>