<?xml version="1.0" encoding="utf-8"?>
<!-- Generator: Adobe Illustrator 21.0.1, SVG Export Plug-In . SVG Version: 6.00 Build 0)  -->
<svg version="1.1" id="Layer_1" xmlns="http://www.w3.org/2000/svg" xmlns:xlink="http://www.w3.org/1999/xlink" x="0px" y="0px"
	 viewBox="0 0 100 70" style="enable-background:new 0 0 100 70; fill:515151;" xml:space="preserve">
<style type="text/css">
	.st0{fill:none;}
	.st1{fill:#515252;}
</style>
<g>
	<g>
		<path class="st0" d="M60.6,29.6c0,0.2,0.1,0.3,0.2,0.4h0.3L60.6,29.6z"/>
		<path class="st0" d="M66.7,30.4c0.8-0.3,1.4-0.6,1.3-1.1c-0.1-0.3-0.3-0.6-0.8-0.9c-0.6,0.3-1.2,0.6-1.9,0.7L66.7,30.4z"/>
		<path class="st0" d="M17.1,42.3c0-2.3-7.1-6.4-9.3-6.4c-2.2,0-3.9,1.8-3.9,4.1c0,2.3,1.8,4.1,3.9,4.1C10,44,17.1,44.5,17.1,42.3z"
			/>
		<path class="st0" d="M6.5,49c0,0-1.1,1.4-0.6,3c0.1,0.3,0.2,0.5,0.4,0.8C6.5,53,6.7,53.3,7,53.5c0.6,0.5,1.5,0.9,2.7,1.3l4.5,0H15
			h0.8l3.4,0L14.1,49H6.5z"/>
		<path class="st0" d="M56.3,42.3c0,2.3,7.1,1.7,9.3,1.7c2.2,0,3.9-1.8,3.9-4.1c0-0.5-0.1-1.1-0.3-1.5l-0.3,0.1l0.1,0.5
			c0.2,1.1-0.6,2.2-1.7,2.5l-2.5,0.5c-1.2,0.2-2.3-0.5-2.5-1.7l-0.4-1.9c-0.3-0.2-0.5-0.4-0.8-0.7C58.7,39,56.3,41,56.3,42.3z"/>
		<path class="st0" d="M65.3,36.9l2.3-0.4c-0.6-0.4-1.3-0.6-2-0.6c-0.5,0-1.2,0.2-2,0.5c0,0,0.1,0,0.1,0.1
			C64,36.6,64.6,36.8,65.3,36.9z"/>
		<path class="st0" d="M77.4,20.6L77.4,20.6l13.2-2.5l-5.5-3.6c-0.6-0.3-1.5-0.5-1.9-0.4l-6.8,1.3l0,0l-6.8,1.3
			c-0.4,0.1-1.2,0.6-1.7,1.1l-3.2,4.5c0.7,0,1.5,0.1,2.2,0.3L77.4,20.6z"/>
		<path class="st0" d="M59.1,28.2l-6.5-6.3c-0.9-0.8-2.5-1.3-3.3-1.3H36.7h0H24.1c-0.8,0-2.4,0.6-3.3,1.3l-8.5,8.2h24.3h0h22.3
			C59,29.5,59,28.8,59.1,28.2z"/>
		<path class="st0" d="M36.7,41.1H20.3c0,3.8,2,6.8,4.5,6.8h11.9h0h11.9c2.5,0,4.5-3.1,4.5-6.8H36.7L36.7,41.1z"/>
		<path class="st0" d="M36.7,50.7H21.7c0,2.3,1.9,4.1,4.1,4.1h10.9h0h10.9c2.3,0,4.1-1.8,4.1-4.1H36.7L36.7,50.7z"/>
		<path class="st0" d="M95.8,27.8l-4.1,0.8l-2.2,3.7l1.9-0.4l0.4-0.1l0.4-0.1l2.4-0.5c0.6-0.3,1.1-0.7,1.3-1
			c0.1-0.2,0.2-0.3,0.3-0.5c0.1-0.2,0.1-0.3,0.1-0.5C96.6,28.5,95.8,27.8,95.8,27.8z"/>
		<path class="st0" d="M72.8,31.5l6.5-1.2l0,0l6.5-1.2c1.3-0.3,2.1-2.1,1.7-4.2l-8.9,1.7l0,0l-8.9,1.7C70,30.3,71.4,31.8,72.8,31.5z
			"/>
		<path class="st0" d="M94.5,25.2c1.2-0.2,2-1.4,1.7-2.6c-0.2-1.2-1.4-2-2.6-1.8c-1.2,0.2-4.6,3.2-4.4,4.5
			C89.5,26.5,93.3,25.4,94.5,25.2z"/>
		<path class="st0" d="M59.4,49l-5.1,5.8h3.4h0.8h0.8l4.5,0c1.2-0.4,2.1-0.8,2.7-1.3c0.3-0.2,0.6-0.5,0.7-0.7
			c0.2-0.3,0.3-0.5,0.4-0.8c0.6-1.6-0.6-3-0.6-3H59.4z"/>
		<path class="st0" d="M79.5,31.8L79.5,31.8l-8.2,1.6c0.2,1.2,1.4,2.1,2.7,1.8l5.9-1.1l0,0l5.9-1.1c1.2-0.2,2.1-1.4,1.8-2.7
			L79.5,31.8z"/>
		<path class="st1" d="M98.3,31.4c0.6-1,0.9-2.2,0.7-3.4L98,23c-0.3-1.7-1.7-3.8-3.4-4.8c0,0-0.1-0.1-0.1-0.1l-1.6-1.1
			c1.1-0.5,2.1-1.6,1.9-2.6c-0.2-1.1-1.9-1.2-3.2-1c-1.4,0.3-1.4,1.3-1.3,1.9l-4.2-2.7c-0.8-0.6-2.3-0.9-3.3-0.7L76,13.4l0,0
			l-6.8,1.3c-1,0.2-2.3,1-2.8,1.8l-2.9,4.1c-0.1-0.7-0.5-1.6-1.9-1.3c-1.3,0.3-2.8,1-2.6,2.1c0.2,1,1.6,1.7,2.8,1.7l-1.1,1.5
			l0.8,0.8c0-1.2,0.3-3,2.9-3c0.1,0,0.3,0,0.4,0l3.2-4.5c0.4-0.5,1.2-1,1.7-1.1l6.8-1.3l0,0l6.8-1.3c0.4-0.1,1.4,0.1,1.9,0.4
			l5.5,3.6l-13.2,2.5l0,0l-10.5,2c1.5,0.4,2.8,1.2,2.8,2.5c0,1.2-1.1,2.5-2.5,3.3c0.4,0.3,0.7,0.6,0.8,0.9c0.1,0.5-0.5,0.9-1.3,1.1
			l1.2,1.1c0.1,0.1,0.1,0.1,0.1,0.2c1.8,1.5,3.1,3.9,3.8,6.2l8.5-1.6l0,0l11.4-2.2l0.1,0.5c0.2,1.1,1.3,1.9,2.5,1.7l2.5-0.5
			c1.2-0.2,1.9-1.3,1.7-2.5L98.3,31.4z M69.6,28.3l8.9-1.7l0,0l8.9-1.7c0.4,2.1-0.4,3.9-1.7,4.2l-6.5,1.2l0,0l-6.5,1.2
			C71.4,31.8,70,30.3,69.6,28.3z M85.9,33l-5.9,1.1l0,0L74,35.2c-1.2,0.2-2.4-0.6-2.7-1.8l8.2-1.6l0,0l8.2-1.6
			C87.9,31.5,87.1,32.7,85.9,33z M89.3,25.2c-0.2-1.2,3.2-4.2,4.4-4.5c1.2-0.2,2.3,0.6,2.6,1.8c0.2,1.2-0.5,2.4-1.7,2.6
			C93.3,25.4,89.5,26.5,89.3,25.2z M96.4,29.4c0,0.1-0.1,0.3-0.1,0.5c-0.1,0.2-0.2,0.3-0.3,0.5c-0.3,0.3-0.7,0.7-1.3,1l-2.4,0.5
			l-0.4,0.1l-0.4,0.1l-1.9,0.4l2.2-3.7l4.1-0.8C95.8,27.8,96.6,28.5,96.4,29.4z"/>
		<path class="st1" d="M62.3,26.7c-1.2,0.2-2,1.4-1.7,2.6c0,0.1,0,0.2,0.1,0.3l0.5,0.4h-0.3c0.5,0.8,1.4,1.3,2.3,1.1
			c0.7-0.1,2.4-0.4,3.6-0.8l-1.3-1.3c0.6-0.1,1.3-0.4,1.9-0.7C65.9,27.4,63.2,26.6,62.3,26.7z"/>
		<path class="st1" d="M69.5,39.9c0,2.3-1.8,4.1-3.9,4.1c-2.2,0-9.3,0.5-9.3-1.7c0-1.3,2.4-3.3,4.8-4.7c-0.5-0.6-0.9-1.4-1.1-2.2
			l-0.9-5c0-0.1,0-0.2-0.1-0.4H36.7h0H12.4l8.5-8.2c0.9-0.8,2.5-1.3,3.3-1.3h12.6h0h12.6c0.8,0,2.4,0.6,3.3,1.3l6.5,6.3
			c0.2-1.2,0.7-2.5,1.4-3.4c0,0,0-0.1,0.1-0.1l0.1-0.1L55,19.1c-1.3-1.3-3.8-2.3-5.7-2.3H36.7h0H24.1c-1.9,0-4.3,1-5.7,2.3L12,25.3
			c0-1.2-0.3-3-2.9-3c-2.5,0-5.4,0.7-5.4,2.8c0,1.8,2.2,3.5,4.3,4l-2.5,2.4c-0.1,0.1-0.1,0.1-0.1,0.2C2.7,34,1,38.2,1,41.3v9.2
			c0,2.2,0.9,4.2,2.3,5.7v3.6c0,2.1,1.7,3.8,3.9,3.8h4.7c2.1,0,3.9-1.7,3.9-3.8v-0.9h21h0h21v0.9c0,2.1,1.7,3.8,3.9,3.8h4.7
			c2.1,0,3.9-1.7,3.9-3.8v-3.6c1.4-1.5,2.3-3.5,2.3-5.7v-9.2c0-1-0.2-2.2-0.6-3.4l-2.6,0.5C69.4,38.9,69.5,39.4,69.5,39.9z
			 M3.9,39.9c0-2.3,1.8-4.1,3.9-4.1c2.2,0,9.3,4.2,9.3,6.4S10,44,7.8,44C5.7,44,3.9,42.2,3.9,39.9z M15.7,54.8H15h-0.8l-4.5,0
			C8.5,54.5,7.7,54,7,53.5c-0.3-0.2-0.6-0.5-0.7-0.7C6.1,52.5,6,52.3,5.9,52c-0.6-1.6,0.6-3,0.6-3h7.6l5.1,5.8L15.7,54.8z
			 M47.7,54.8H36.7h0H25.8c-2.3,0-4.1-1.9-4.1-4.1h15.1h0h15.1C51.8,53,49.9,54.8,47.7,54.8z M48.6,47.9H36.7h0H24.8
			c-2.5,0-4.5-3.1-4.5-6.8h16.4h0h16.4C53.1,44.8,51.1,47.9,48.6,47.9z M67.6,52c-0.1,0.3-0.2,0.5-0.4,0.8c-0.2,0.3-0.4,0.5-0.7,0.7
			c-0.6,0.5-1.5,0.9-2.7,1.3l-4.5,0h-0.8h-0.8h-3.4l5.1-5.8H67C67,49,68.1,50.5,67.6,52z"/>
		<path class="st1" d="M67.6,36.4L67.6,36.4l0.5-0.1l0.4-0.1l1.9-0.4L67,33.3L62.9,34c0,0-0.5,0.9,0,1.7c0.1,0.1,0.2,0.2,0.3,0.4
			c0.1,0.1,0.2,0.2,0.4,0.3c0.8-0.3,1.6-0.5,2-0.5C66.3,35.8,67,36.1,67.6,36.4z"/>
		<path class="st1" d="M60.5,24.7c-0.7,0.9-1.2,2.2-1.4,3.4l1.5,1.4c0-0.1,0-0.2-0.1-0.3c-0.2-1.2,0.5-2.4,1.7-2.6
			c0.9-0.2,3.6,0.7,5,1.6c1.4-0.8,2.5-2,2.5-3.3c0-1.4-1.2-2.1-2.8-2.5l-2.8,0.5l0.6-0.8c-0.1,0-0.3,0-0.4,0c-2.6,0-2.9,1.8-2.9,3
			l-0.8-0.8l-0.1,0.1C60.6,24.7,60.5,24.7,60.5,24.7z"/>
		<path class="st1" d="M68,31.7c0-0.1-0.1-0.1-0.1-0.2l-1.2-1.1c-1.2,0.4-2.9,0.6-3.6,0.8c-0.9,0.2-1.9-0.3-2.3-1.1h-1.7
			c0,0.1,0,0.2,0.1,0.4l0.9,5c0.2,0.8,0.6,1.6,1.1,2.2c0.8-0.5,1.7-0.9,2.4-1.2c-0.2-0.1-0.3-0.2-0.4-0.3c-0.1-0.1-0.2-0.2-0.3-0.4
			c-0.5-0.8,0-1.7,0-1.7l4.1-0.8l3.4,2.6l-1.9,0.4l-0.4,0.1l-0.4,0.1l-0.1,0c0.7,0.5,1.3,1.1,1.6,2l2.6-0.5
			C71.1,35.6,69.8,33.2,68,31.7z"/>
	</g>
	<polygon class="st1" points="65.1,7.7 68.3,8.9 62.9,17.9 62.4,17.8 	"/>
	<polygon class="st1" points="56.1,5.5 59.5,4.7 59.7,15.3 59.3,15.4 	"/>
	<polygon class="st1" points="49,12.7 51.2,10.1 57.9,18.2 57.6,18.6 	"/>
</g>
</svg>
