<?xml version="1.0" encoding="utf-8"?>
<!-- Generator: Adobe Illustrator 21.0.1, SVG Export Plug-In . SVG Version: 6.00 Build 0)  -->
<svg version="1.1" id="Layer_1" xmlns="http://www.w3.org/2000/svg" xmlns:xlink="http://www.w3.org/1999/xlink" x="0px" y="0px"
	 viewBox="0 0 56 70" style="enable-background:new 0 0 56 70; fill:515151;" xml:space="preserve">
<style type="text/css">
	.st0{fill-rule:evenodd;clip-rule:evenodd;fill:#515252;}
</style>
<path class="st0" d="M47.3,2.8H21.7l-4.8,4.8l-4.8-4.8c-0.9-0.9-2.3-0.9-3.2,0L7.6,1.5c-1.1-1.1-2.9-1.1-4.1,0L0.8,4.1
	c-1.1,1.1-1.1,2.9,0,4.1l1.3,1.3L2,9.6c-0.9,0.9-0.9,2.3,0,3.2l4.8,4.8l-5.2,5.1v42.8c0,2.5,2,4.5,4.4,4.5h45.7c2.4,0,4.4-2,4.4-4.5
	V11.9C56,6.9,52.1,2.8,47.3,2.8z M46.8,60.6L45,62.4L28.8,46.2L12.6,62.4l-1.8-1.8l16.2-16.2L10.7,28.2l1.8-1.8l16.2,16.2L45,26.3
	l1.8,1.8L30.6,44.4L46.8,60.6z M48.8,12.2C48.8,12.2,48.8,12.2,48.8,12.2c0,2.3-2.1,4.2-4.7,4.2H29c-2.6,0-4.7-1.9-4.7-4.2
	c0,0,0,0,0,0v0l0,0C24.3,9.9,26.4,8,29,8h15.2C46.7,8,48.8,9.9,48.8,12.2L48.8,12.2L48.8,12.2z"/>
</svg>
