<?xml version="1.0" encoding="utf-8"?>
<!-- Generator: Adobe Illustrator 23.0.2, SVG Export Plug-In . SVG Version: 6.00 Build 0)  -->
<svg version="1.1" id="Layer_1" xmlns="http://www.w3.org/2000/svg" xmlns:xlink="http://www.w3.org/1999/xlink" x="0px" y="0px"
	 viewBox="0 0 100 40" style="enable-background:new 0 0 100 40;" xml:space="preserve">
<style type="text/css">
	.st0{fill:#515252;}
	.st1{fill:#F16522;}
</style>
<g>
	<path class="st0" d="M86.6,23.6l-0.9,0.1c-0.1,0-0.2-0.1-0.2-0.2c0-1.2-0.3-8.3-1.3-10.9c-0.1-0.2-0.3-0.4-0.6-0.4l-0.5-0.1
		c-0.1,0-0.2-0.1-0.3-0.2c-0.8-1.9-2.5-6-3.3-7.3c-0.1-0.1,1.5-1,1.5-3.2C81,1.2,80.8,1,80.6,1c-3.3,0.3-26.3,2.1-38.4,5.3l0,0l0,0
		c-0.2,0.2-7.1,8.1-9.4,10.9c-0.1,0.1-0.2,0.2-0.3,0.1c-0.6,0-1.2-0.1-1.6-0.3c-0.5,0-0.7,0-1,0c-5.4,1-15.5,2-16.6,5.8
		c0,0.1-0.1,0.3-0.2,0.3c-0.3,0.2-0.6,0.7-0.8,3.9c0,0.4-1.3,0.5-1.4,1.5c0,0.8,0.3,2.6,0.4,3.4c0,0.2,0.2,0.5,0.4,0.6L16,35
		c0.2,0.1,0.5,0.2,0.7,0.2h0.1c-0.4-4.7,3.1-8.8,7.9-9.2c4.7-0.4,8.9,3.1,9.3,7.9c0,0.6,0,1.2,0,1.8c0.1,0,0.1,0,0.2,0
		c1.5-0.6,3-2.3,3.5-2.8c0.1-0.1,0.2-0.2,0.3-0.2c1.8-0.1,16.1-1.3,19-1.6c0.1,0,0.3,0,0.4,0.1l3.5,1.3c0.2,0.1,0.5,0.1,0.8,0
		l1.6-0.5c0.1,0,0.3-0.1,0.4-0.1h0.4c0-0.1,0-0.3-0.1-0.4c-0.4-4.7,3.1-8.9,7.9-9.3c4.7-0.4,8.9,3.1,9.3,7.9c0,0.2,0,0.4,0,0.6
		c0.1,0,0.1,0,0.2-0.1c0.3-0.1,0.7-0.6,1-1.5c0-0.1,0.1-0.2,0.2-0.3c2.2-1.4,1.6,0.2,2.5-0.5c1.6-1.1,1.9-1,2.1-1.7
		C87,25.8,87.1,23.7,86.6,23.6z M12.3,31.2c-0.4,0-0.6-2.4-0.2-2.4c0.4,0,1,0.5,1.1,1.1C13.3,30.6,12.8,31.2,12.3,31.2z M17.3,24.1
		l-0.4,1.2c-0.2,0.6-0.7,1-1.3,1.2L14,27c-0.5,0.1-0.9-0.2-0.9-0.7c0.1-0.6,0.2-1.4,0.4-2s0.8-0.9,1.4-1l1.7-0.1
		C17.1,23.2,17.4,23.6,17.3,24.1z M58.1,18.7c-0.2,0.1-0.5,0.1-1.1,0.2h-0.5c-0.2,0-0.4,0-0.7,0.1c-2,0.2-2.5,0.2-2.6,0
		c-0.1-0.1,0-0.2,0-0.3c0.2-0.4,1.1-0.8,2.5-0.9c0.6,0,2.5-0.2,2.6,0.6C58.3,18.5,58.3,18.6,58.1,18.7z M58.4,13.5
		c0.1,1.2-0.8,2.3-2,2.4l-18,1.6c-0.8,0.1-1.3-0.9-0.8-1.5l5.1-6.2c0.9-1.1,2.2-1.8,3.5-2l9.6-1.6C56.9,6.1,58,7,58.1,8.1L58.4,13.5
		z M75.6,11.6l-9.1,2.6c-1.2,0.3-2.4-0.3-2.9-1.4l-2-5.1c-0.4-1,0.3-2.1,1.4-2.2l9.7-0.7c1.3-0.1,2.5,0.7,3.1,1.9l1,2.3
		C77.2,10.1,76.7,11.3,75.6,11.6z M83.1,20.6l-2.2,0.2c-0.2,0-0.4-0.1-0.4-0.4l-0.3-3.1c0-0.3,0-0.5,0.2-0.7l1.1-1.7
		c0.1-0.2,0.3-0.3,0.6-0.3c0.2,0,0.4,0.1,0.5,0.3l0.4,0.9c0.1,0.2,0.2,0.5,0.2,0.8l0.4,3.5C83.5,20.4,83.3,20.6,83.1,20.6z"/>
	<path class="st0" d="M53.9,33.1H39.7c-1,0-2,0.3-2.9,0.9l-2.4,1.7h24.7L56.8,34C56,33.4,55,33.1,53.9,33.1z"/>
	<path class="st0" d="M24.1,25.7c-3.8,0-6.9,3.1-6.9,6.9c0,0.1,0,0.1,0,0.2c0,0.4,0,0.7,0.1,1.1c0.1,0.4,0.2,0.7,0.3,1
		c1.3,1.4,3.1,2.7,5.2,2.5c0.2,0,0.5,0,0.7,0s0.5,0,0.7,0.1c0.3,0.1,0.5,0.1,0.8,0.2c0.6-0.1,1.3-0.1,1.9,0c0.3,0,0.7,0.1,1,0.1
		c3.5,0.2,4.7-4.3,3.2-6.9c-0.3-0.8-0.8-1.5-1.3-2.1c-0.3-0.3-0.5-0.6-0.8-0.9s-0.6-0.5-0.9-0.7s-0.6-0.4-0.9-0.6
		C26.3,26,25.2,25.7,24.1,25.7z M28.7,33.8c-0.2,0.2-0.4,0.4-0.6,0.5s-0.4,0.3-0.7,0.4c-0.4,0.2-0.9,0.4-1.4,0.6
		c-0.3,0.1-0.7,0.2-1.1,0.2c-0.3,0-0.5,0-0.8,0s-0.5,0-0.8-0.1c-0.4-0.1-0.7-0.1-1.1-0.2c-1.7-0.4-2.4-2-2-3.6
		c0.1-0.3,0.2-0.6,0.4-0.9c0.7-1.2,1.9-1.9,3.4-1.9c0.8,0,1.6,0.2,2.2,0.7c0.2,0.1,0.4,0.3,0.6,0.5c0.3,0.5,0.7,0.9,1.1,1.4
		c0.2,0.2,0.3,0.5,0.4,0.7s0.2,0.5,0.2,0.8C28.8,33.1,28.8,33.5,28.7,33.8z"/>
	<path class="st0" d="M71.2,25.7c-3.8,0-6.9,3.1-6.9,6.9c0,0.1,0,0.3,0,0.4c0.2,3.6,3.2,6.4,6.9,6.4c3.6,0,6.6-2.8,6.8-6.3
		c0-0.2,0-0.4,0-0.6C78.1,28.8,75,25.7,71.2,25.7z M75.1,33.1c-0.3,1.9-1.9,3.4-3.9,3.4S67.5,35,67.3,33c0-0.2,0-0.3,0-0.5
		c0-2.2,1.8-3.9,3.9-3.9c2.2,0,3.9,1.8,3.9,3.9C75.1,32.7,75.1,32.9,75.1,33.1z"/>
</g>
<g id="LGCjfE.tif">
	<g>
		<path class="st1" d="M18.5,1c0.5,0.8,0.3,1.6-0.2,2.3s-1,1.4-1.5,2.1c-0.5,0.6-0.7,1.3-0.8,2c-0.3,2.1,0.2,4,1.5,5.7
			c0.6,0.7,1.1,1.1,2.1,1.1c2.6-0.1,5.2,0,7.8,0c0.3,0,0.5-0.1,0.7-0.3c1.7-1.6,2.4-3.6,2.3-5.9c-0.1-1.3-0.6-2.3-1.4-3.3
			c-0.3-0.4-0.6-0.9-1-1.3c-0.5-0.6-0.5-1.3-0.5-2c0-0.2,0.2-0.3,0.2-0.4c0.4,0,0.8,0,1.2,0c0.1,0.1,0.3,0.3,0.3,0.4
			c0.1,0.2,0.1,0.5,0.1,0.8c0,0.7,0.2,1.4,0.7,2c0.9,1.2,1.4,2.6,1.5,4.1c0.1,1.7-0.3,3.2-1.2,4.6c-0.4,0.7-0.7,1.3-0.9,2.1
			c-0.1,0.2-0.1,0.3-0.2,0.5C29.1,15.8,29,16,28.6,16c-0.3,0-0.6,0-0.9,0.1c-0.2,0-0.3,0-0.5,0c0-0.3,0-0.6,0-0.9
			c-0.4,0-0.7,0-1.1,0c0,0.3,0,0.6-0.1,0.9c-0.4,0-0.8,0-1.2,0c0-0.3,0-0.6,0-0.9c-0.4,0-0.8,0-1.2,0c0,0.3,0,0.6,0,0.9
			c-0.4,0-0.9,0-1.3,0c0-0.3,0-0.6,0-0.9c-0.4,0-0.8,0-1.2,0c0,0.3,0,0.6,0,0.9c-0.4,0-0.8,0-1.2,0c0-0.3,0-0.6-0.1-0.9
			c-0.4,0-0.7,0-1.1,0c0,0.3,0,0.6,0,0.9c-0.2,0-0.3,0-0.5,0c-0.1,0-0.2-0.1-0.3-0.1c-1-0.1-1-0.1-1.3-1c-0.2-0.6-0.3-1.2-0.7-1.8
			C14,10.3,14,7,16,4.1c0.4-0.6,0.6-1.2,0.6-1.9c0-0.4,0-0.9,0.4-1.3C17.7,1,18.1,1,18.5,1z"/>
		<path class="st1" d="M21.4,16.1c0-0.3,0-0.6,0-0.9c0.4,0,0.8,0,1.2,0c0,0.3,0,0.6,0,0.9C22.2,16.1,21.8,16.1,21.4,16.1z"/>
		<path class="st1" d="M23.8,16.1c0-0.3,0-0.6,0-0.9c0.4,0,0.8,0,1.2,0c0,0.3,0,0.6,0,0.9C24.6,16.1,24.2,16.1,23.8,16.1z"/>
		<path class="st1" d="M19,16.1c0-0.3,0-0.6,0-0.9c0.4,0,0.7,0,1.1,0c0,0.3,0,0.6,0.1,0.9C19.7,16.1,19.4,16.1,19,16.1z"/>
		<path class="st1" d="M26.3,16.1c0-0.3,0-0.6,0.1-0.9c0.4,0,0.7,0,1.1,0c0,0.3,0,0.6,0,0.9C27,16.1,26.6,16.1,26.3,16.1z"/>
		<path class="st1" d="M24.2,5.9c0,0.8,0,1.7,0,2.5c0,0.7-0.4,1.2-1,1.2s-1.1-0.5-1.1-1.2c0-1.7,0-3.4,0-5.1c0-0.7,0.4-1.1,1.1-1.1
			c0.6,0,1,0.5,1,1.1C24.3,4.1,24.2,5,24.2,5.9z"/>
		<path class="st1" d="M24.2,12c0,0.6-0.5,1.1-1.1,1.1s-1-0.5-1-1c0-0.6,0.5-1.1,1-1.1C23.8,10.9,24.2,11.4,24.2,12z"/>
	</g>
</g>
</svg>
