<?xml version="1.0" encoding="utf-8"?>
<!-- Generator: Adobe Illustrator 21.0.1, SVG Export Plug-In . SVG Version: 6.00 Build 0)  -->
<svg version="1.1" id="Layer_1" xmlns="http://www.w3.org/2000/svg" xmlns:xlink="http://www.w3.org/1999/xlink" x="0px" y="0px"
	 viewBox="0 0 400 400" style="enable-background:new 0 0 400 400;" xml:space="preserve">
<style type="text/css">
	.st0{fill:none;}
	.st1{fill:#CCCAE2;}
	.st2{fill:#9899C6;}
	.st3{fill:#353535;}
	.st4{fill:#1A1A1A;}
	.st5{fill:#E6E6E6;}
	.st6{fill:#F2F2F2;}
	.st7{fill:#D6D6D6;}
	.st8{fill:#666666;}
	.st9{fill:#545454;}
	.st10{fill:#BABABA;}
	.st11{fill:url(#SVGID_1_);}
	.st12{fill:#242424;}
	.st13{fill:#121212;}
	.st14{fill:#CCCCCC;}
	.st15{fill:#B3B3B3;}
	.st16{fill:url(#SVGID_2_);}
	.st17{fill:#DFDFDF;}
	.st18{fill:#969696;}
	.st19{fill:#E0E0E0;}
	.st20{fill:#545759;}
	.st21{fill:#62778C;}
	.st22{fill:#576D82;}
	.st23{fill:#73777A;}
	.st24{fill:#4D4D4D;}
	.st25{fill:#3D3D3D;}
	.st26{fill:#999999;}
	.st27{fill:#FFFFFF;}
	.st28{fill:#DEDEDE;}
	.st29{fill:#E06A10;}
	.st30{fill:#F07D26;}
	.st31{fill:#D15A10;}
	.st32{fill:#ABABAB;}
	.st33{fill:#D4D4D4;}
	.st34{fill:#8C8C8C;}
	.st35{fill:#5C5C5C;}
	.st36{fill:#4A4A4A;}
	.st37{fill:#F7781E;}
	.st38{fill:#FF8E3D;}
	.st39{fill:#EB681D;}
	.st40{fill:#B0B0B0;}
	.st41{fill:url(#SVGID_3_);}
	.st42{fill:url(#SVGID_4_);}
	.st43{fill:url(#SVGID_5_);}
	.st44{fill:url(#SVGID_6_);}
	.st45{fill:#808080;}
	.st46{fill:#B34214;}
	.st47{fill:#A83514;}
	.st48{fill:#B5B5B5;}
	.st49{fill:#C4C4C4;}
	.st50{fill:#757575;}
	.st51{fill:url(#SVGID_7_);}
	.st52{fill:url(#SVGID_8_);}
	.st53{fill:url(#SVGID_9_);}
	.st54{fill:url(#SVGID_10_);}
	.st55{fill:url(#SVGID_11_);}
	.st56{fill:url(#SVGID_12_);}
	.st57{fill:url(#SVGID_13_);}
	.st58{fill:#FFBA00;}
	.st59{fill:url(#SVGID_14_);}
	.st60{fill:#F09400;}
	.st61{fill:#404040;}
	.st62{fill:#EEEEEE;}
	.st63{fill:#474747;}
	.st64{fill:#EBEBEB;}
	.st65{fill:#FFDD82;}
	.st66{fill:#FF8B00;}
	.st67{fill:#231F20;}
</style>
<g>
	<g>
		<path class="st0" d="M26.5,203.4h0.2c0-1,0-2.1,0-3.1c0-0.7,0-1.3,0-2c-0.1,0.2-0.3,0.3-0.6,0.3h0.4V203.4z"/>
		<path class="st1" d="M299.8,242l0.1-0.2c-0.1-0.1-0.1-0.2-0.2-0.3l-17.1,6.3c0.9,2.4,2.3,4.6,4,6.5L299.8,242z"/>
		<path class="st1" d="M300.5,242.3c-0.1,0-0.1-0.1-0.2-0.1l-8.7,16c0.6,0.3,1.3,0.7,1.9,0.9L300.5,242.3z"/>
		<path class="st1" d="M302.7,241.5l5,2.3l-0.1-2.5l-4.8-0.2C302.8,241.2,302.7,241.3,302.7,241.5z"/>
		<path class="st1" d="M291.2,258l8.2-15.2l-12.6,11.8C288.1,255.9,289.6,257,291.2,258z"/>
		<path class="st1" d="M281.4,240.9c0,2.4,0.4,4.6,1.2,6.7l17.1-6.3c0-0.1,0-0.2-0.1-0.3l-18.2-0.6
			C281.4,240.6,281.4,240.7,281.4,240.9z"/>
		<path class="st1" d="M302.5,241.8l0.3,0.6l5,5.4l-0.2-3.8l-5.1-2.3C302.5,241.7,302.5,241.8,302.5,241.8z"/>
		<path class="st1" d="M301.1,239.3l0.6-18.2c-0.2,0-0.3,0-0.5,0c-2.3,0-4.4,0.4-6.5,1.1l6.1,17.2
			C300.9,239.3,301,239.3,301.1,239.3z"/>
		<polygon class="st1" points="308,252 307.9,248.2 303.3,243.4 		"/>
		<path class="st1" d="M301.2,260.7c2.3,0,4.4-0.4,6.5-1.1l-6.1-17.2c-0.1,0-0.2,0-0.3,0l-0.6,18.2
			C300.9,260.7,301,260.7,301.2,260.7z"/>
		<path class="st1" d="M294.5,222.3c-2.5,0.9-4.8,2.3-6.7,4.1l12.5,13.3c0.1-0.1,0.2-0.2,0.3-0.2L294.5,222.3z"/>
		<path class="st1" d="M308.4,261l-0.1-1.2c-0.1,0-0.2,0.1-0.3,0.1L308.4,261z"/>
		<path class="st1" d="M301.8,242.4l6.1,17.2c0.2-0.1,0.3-0.1,0.4-0.2l-0.3-6.1l-6-11C302,242.3,301.9,242.3,301.8,242.4z"/>
		<path class="st1" d="M26.7,198.3c0,0.7,0,1.3,0,2c0,1,0,2.1,0,3.1h1.4l1,2.7h6.7v4.1h17.5v2.7h2.2v2.1h-1v63h8.4V233h0.8v-3.3h1.5
			v-11.1h0.6v11.1H67v-8.8h0.6v8.8h2.6v3.3h3.3v11.7h6.3v0.8H79v2.3h4.1v-36.4h-0.6v-0.9h4.2v-5.6h-0.5V204h3.9v-3.2h-0.6v-0.7h1.9
			V197h1.8v-6.1h0.2h0.2h0.2v6.1h0.7v-10.9h0.2H95h0.2V197h0.2H97v3.1h1.7v0.7h-0.3v3.2h3.9v0.9h-0.5v5.6h4.2v0.9h-0.6V259h12.9v6.6
			h4.6v-35.2H120v-0.9h2.7V228h3.4v-2.6h16.6v-30.2h3.9v-24.1h7.6v-13.2h1.1v13.2h2.4v-10.5h1.1v10.5h12v14.3h2.2v9.8h6.1v36.4h2.4
			v8.4l3.5-0.8v-1.9h3v1.2l5.6-1.4v-2.2h3v1.4l5.1-1.2v-10.5h1.4v-18.3h6.6v-7h3.5v-5.8h1.2v-10h0.3v10h1.2v5.8h3.5v7h6.6v18.3h1.3
			v57.2h6.1v-35.7H232v-0.6h17.1v-7.5h-1.9v-0.8h-1V235h4.5v-2.6h-0.6v-0.7h10v0.7h-0.6v2.6h13.1c0.4-2.1,1.1-4.2,2-6.2l-2.2-1
			c-0.4,0.8-1.2,1.4-2.1,1.4c-1.3,0-2.4-1.1-2.4-2.4c0-1.3,1.1-2.4,2.4-2.4c1.3,0,2.4,1.1,2.4,2.4c0,0.3,0,0.5-0.1,0.8l2.2,1
			c1.4-3,3.4-5.8,5.8-8.3c0.2-0.2,0.4-0.4,0.6-0.6l-1.7-1.8c-0.4,0.4-1,0.6-1.6,0.6c-1.3,0-2.4-1.1-2.4-2.4c0-1.3,1.1-2.4,2.4-2.4
			s2.4,1.1,2.4,2.4c0,0.6-0.2,1.2-0.6,1.6l1.7,1.8c2.9-2.7,6.3-4.8,10-6.1l-1-2.7c-0.2,0.1-0.4,0.1-0.7,0.1c-1.3,0-2.4-1.1-2.4-2.4
			c0-1.3,1.1-2.4,2.4-2.4s2.4,1.1,2.4,2.4c0,1-0.6,1.8-1.5,2.2l1,2.7c3-1.1,6.3-1.6,9.6-1.6c0.3,0,0.5,0,0.8,0l0.1-3.3
			c-1.1-0.2-2-1.1-2-2.3c0-1.3,1.1-2.4,2.4-2.4c1.3,0,2.4,1.1,2.4,2.4s-1.1,2.4-2.4,2.4c0,0-0.1,0-0.1,0l-0.1,3.3
			c1.3,0,2.7,0.2,4,0.4l-1.2-27.3l43.8,9.1v47.9h7.6v-24.6h13.7v-9.8h0.7v9.8h1.5V199h0.7v18.2h1.8v-13.1h0.7v13.1h2.3v11.1
			c1.5-9.1,2.2-18.5,2.2-28c0-97.6-79.1-176.7-176.7-176.7c-96.7,0-175.3,77.7-176.7,174.1c0.1,0.1,0.1,0.2,0.1,0.3
			C26.8,198.1,26.8,198.2,26.7,198.3z"/>
		<path class="st1" d="M286.4,254.6c-1.8-1.9-3.2-4.1-4.1-6.6l-7.4,2.7v0.9c1.3,3.1,3.1,6,5.5,8.6L286.4,254.6z"/>
		<path class="st1" d="M281.4,240.1l18.2,0.6c0-0.1,0-0.2,0.1-0.4l-16.5-7.6C282.1,235,281.5,237.5,281.4,240.1z"/>
		<path class="st1" d="M274.9,249.8v0.7l7.3-2.7c-0.8-2.1-1.2-4.5-1.2-6.9c0-0.2,0-0.4,0-0.5l-6.1-0.2v8.8h1.1v0.8H274.9z"/>
		<path class="st1" d="M300,239.8l-12.5-13.3c-1.8,1.7-3.2,3.7-4.3,5.9l16.5,7.6C299.9,240,299.9,239.9,300,239.8z"/>
		<path class="st1" d="M274.9,261.1v1.2c0.4-0.3,0.9-0.5,1.5-0.5c0.6,0,1.2,0.2,1.6,0.7l1.8-1.7c-2-2.2-3.7-4.6-4.9-7.2v6.7h1.1v0.8
			H274.9z"/>
		<path class="st1" d="M287.7,265.9v-0.4l-0.2,0.3C287.6,265.8,287.6,265.8,287.7,265.9z"/>
		<path class="st1" d="M286.7,267.2h0.9v-0.4c-0.2-0.1-0.4-0.2-0.5-0.3L286.7,267.2z"/>
		<path class="st1" d="M286.6,254.8l-6,5.6c0.2,0.2,0.4,0.4,0.6,0.6c1.8,1.8,3.8,3.3,5.9,4.5l0.6-1.1v-2.5h1.3l1.9-3.6
			C289.3,257.4,287.8,256.2,286.6,254.8z"/>
		<path class="st1" d="M280,260.9l-1.8,1.7c0.3,0.4,0.6,0.9,0.6,1.5c0,1.3-1.1,2.4-2.4,2.4c-0.6,0-1.1-0.2-1.5-0.5v5.5h1.1v0.8h-1.1
			v10.5h1.1v0.8h-1.1v3.3h0.5l6.8-12.6v-5.2h-1v-1.9h4.9l0.5-1c-2.2-1.3-4.3-2.8-6.1-4.7C280.4,261.3,280.2,261.1,280,260.9z"/>
		<polygon class="st1" points="282.3,287 282.3,275.5 276,287 		"/>
		<path class="st1" d="M301.2,261.1c-0.2,0-0.4,0-0.5,0l-0.2,6.1h1.2v-5.3h6.7l-0.7-1.9C305.7,260.7,303.5,261.1,301.2,261.1z"/>
		<path class="st1" d="M300.7,242.4l-6.9,16.9c2.1,0.8,4.3,1.3,6.6,1.4l0.6-18.2C300.9,242.5,300.8,242.5,300.7,242.4z"/>
		<path class="st1" d="M290.7,266.7v0.5h2.8v-5.3h2.8v5.3h3.9l0.2-6.1c-2.4-0.1-4.7-0.6-6.8-1.4L290.7,266.7z"/>
		<path class="st1" d="M290.7,266l2.7-6.5c-0.7-0.3-1.3-0.6-2-1l-1.8,3.3h1.1V266z"/>
		<path class="st1" d="M301.4,239.3c0.1,0,0.2,0,0.3,0.1l5.2-12.7l-0.2-4.8c-1.5-0.4-3.1-0.7-4.7-0.8L301.4,239.3z"/>
		<path class="st1" d="M302.8,240.8l4.7,0.2l-0.1-2.2l-4.7,1.7C302.8,240.6,302.8,240.7,302.8,240.8z"/>
		<path class="st1" d="M306.7,221.5l-0.4-8.5c-1.3-0.2-2.7-0.4-4-0.4l-0.3,8.2C303.6,220.8,305.2,221,306.7,221.5z"/>
		<path class="st1" d="M302.3,239.7l5-4.7l-0.3-7.7l-5,12.2C302,239.6,302.2,239.6,302.3,239.7z"/>
		<path class="st1" d="M302.6,240.2l4.8-1.8l-0.1-3.1l-4.8,4.5C302.5,240,302.6,240.1,302.6,240.2z"/>
		<path class="st1" d="M294.4,221.9l-2.7-7.7c-3.6,1.3-6.9,3.3-9.7,5.9l5.6,6C289.5,224.3,291.8,222.8,294.4,221.9z"/>
		<path class="st1" d="M287.3,226.3l-5.6-6c-0.2,0.2-0.4,0.4-0.6,0.6c-2.4,2.4-4.3,5.1-5.7,8l7.4,3.4C284,230,285.5,228,287.3,226.3
			z"/>
		<path class="st1" d="M277.8,237.3h-1v0.8h-1.9v1.8l6.1,0.2c0.1-2.7,0.7-5.2,1.8-7.6l-7.4-3.4c-0.9,1.9-1.5,3.8-1.9,5.8h4.4V237.3z
			"/>
		<path class="st1" d="M301.2,220.7c0.2,0,0.4,0,0.5,0l0.3-8.2c-0.3,0-0.5,0-0.8,0c-3.2,0-6.4,0.5-9.3,1.6l2.7,7.7
			C296.7,221.1,298.9,220.7,301.2,220.7z"/>
		<path class="st2" d="M26.7,198.3c0-0.2,0-0.4,0-0.6c-0.1-0.2-0.3-0.3-0.6-0.3c-0.4,0-0.7,0.3-0.7,0.7c0,0.4,0.3,0.7,0.7,0.7
			C26.4,198.6,26.6,198.5,26.7,198.3z"/>
		<path class="st2" d="M26.8,198c0-0.1,0-0.2-0.1-0.3c0,0.2,0,0.4,0,0.6C26.8,198.2,26.8,198.1,26.8,198z"/>
		<path class="st2" d="M377.9,217.2h-2.3v-13.1h-0.7v13.1h-1.8V199h-0.7v18.2h-1.5v-9.8h-0.7v9.8h-13.7v24.6h-7.6V194l-43.8-9.1
			l1.2,27.3c-1.3-0.2-2.6-0.4-4-0.4l0.1-3.3c0,0,0,0,0.1,0c1.3,0,2.4-1.1,2.4-2.4s-1.1-2.4-2.4-2.4c-1.3,0-2.4,1.1-2.4,2.4
			c0,1.2,0.9,2.2,2,2.3l-0.1,3.3c-0.3,0-0.5,0-0.8,0c-3.3,0-6.5,0.5-9.6,1.6l-1-2.7c0.9-0.4,1.5-1.2,1.5-2.2c0-1.3-1.1-2.4-2.4-2.4
			s-2.4,1.1-2.4,2.4c0,1.3,1.1,2.4,2.4,2.4c0.2,0,0.4,0,0.7-0.1l1,2.7c-3.7,1.3-7.1,3.4-10,6.1l-1.7-1.8c0.4-0.4,0.6-1,0.6-1.6
			c0-1.3-1.1-2.4-2.4-2.4s-2.4,1.1-2.4,2.4c0,1.3,1.1,2.4,2.4,2.4c0.6,0,1.1-0.2,1.6-0.6l1.7,1.8c-0.2,0.2-0.4,0.4-0.6,0.6
			c-2.4,2.4-4.4,5.2-5.8,8.3l-2.2-1c0.1-0.2,0.1-0.5,0.1-0.8c0-1.3-1.1-2.4-2.4-2.4c-1.3,0-2.4,1.1-2.4,2.4c0,1.3,1.1,2.4,2.4,2.4
			c1,0,1.8-0.6,2.1-1.4l2.2,1c-0.9,2-1.6,4-2,6.2h-13.1v-2.6h0.6v-0.7h-10v0.7h0.6v2.6h-4.5v2.3h1v0.8h1.9v7.5H232v0.6h1.4v35.7
			h-6.1v-57.2H226v-18.3h-6.6v-7h-3.5v-5.8h-1.2v-10h-0.3v10h-1.2v5.8h-3.5v7H203v18.3h-1.4v10.5l-5.1,1.2v-1.4h-3v2.2l-5.6,1.4
			v-1.2h-3v1.9l-3.5,0.8v-8.4h-2.4v-36.4H173v-9.8h-2.2v-14.3h-12v-10.5h-1.1v10.5h-2.4v-13.2h-1.1v13.2h-7.6v24.1h-3.9v30.2h-16.6
			v2.6h-3.4v1.6H120v0.9h2.7v35.2h-4.6V259h-12.9v-47.6h0.6v-0.9h-4.2v-5.6h0.5V204h-3.9v-3.2h0.3v-0.7H97V197h-1.6h-0.2v-10.9H95
			h-0.2h-0.2V197h-0.7v-6.1h-0.2h-0.2h-0.2v6.1h-1.8v3.1h-1.9v0.7h0.6v3.2h-3.9v0.9h0.5v5.6h-4.2v0.9h0.6v36.4H79v-2.3h0.8v-0.8
			h-6.3V233h-3.3v-3.3h-2.6v-8.8H67v8.8h-1.3v-11.1h-0.6v11.1h-1.5v3.3h-0.8v44.8h-8.4v-63h1v-2.1h-2.2v-2.7H35.8v-4.1h-6.7l-1-2.7
			h-1.4c0.8,44.9,18.3,85.7,46.6,116.5h7.9h5.6h6.6H120h6.1h10.4h3.7h16.4h4.4h15.3h1.5h1.5h5.6h3h5.6h2.5h0.5h5.6h3h4.8h0.8h1.5
			h1.5h4.1h20.8h3h1.4h6.2h11h10.1h4.7h7.3h18.2h19.3h0.2h13.5c23-25,38.8-56.6,44.4-91.6V217.2z M308.4,261l-0.4-1.1
			c0.1,0,0.2-0.1,0.3-0.1L308.4,261z M308.4,259.4c-0.1,0.1-0.3,0.1-0.4,0.2l-6.1-17.2c0.1,0,0.2-0.1,0.2-0.1l6,11L308.4,259.4z
			 M274.9,260.3v-6.7c1.3,2.6,2.9,5,4.9,7.2l-1.8,1.7c-0.4-0.4-1-0.7-1.6-0.7c-0.6,0-1.1,0.2-1.5,0.5v-1.2h1.1v-0.8H274.9z
			 M274.9,251.6v-0.9l7.4-2.7c0.9,2.5,2.3,4.7,4.1,6.6l-6,5.6C278,257.7,276.2,254.8,274.9,251.6z M274.9,248.9v-8.8l6.1,0.2
			c0,0.2,0,0.3,0,0.5c0,2.4,0.4,4.7,1.2,6.9l-7.3,2.7v-0.7h1.1v-0.8H274.9z M299.7,240.4c0,0.1-0.1,0.2-0.1,0.4l-18.2-0.6
			c0.1-2.6,0.7-5.1,1.8-7.4L299.7,240.4z M283.3,232.5c1.1-2.2,2.5-4.3,4.3-5.9l12.5,13.3c-0.1,0.1-0.1,0.2-0.2,0.3L283.3,232.5z
			 M299.6,241c0,0.1,0,0.2,0.1,0.3l-17.1,6.3c-0.8-2.1-1.2-4.4-1.2-6.7c0-0.2,0-0.3,0-0.5L299.6,241z M282.7,247.9l17.1-6.3
			c0,0.1,0.1,0.2,0.2,0.3l-0.1,0.2l-13.1,12.3C284.9,252.5,283.6,250.3,282.7,247.9z M299.4,242.8l-8.2,15.2c-1.6-0.9-3-2.1-4.3-3.4
			L299.4,242.8z M300.3,242.2c0.1,0,0.1,0.1,0.2,0.1l-6.9,16.9c-0.7-0.3-1.3-0.6-1.9-0.9L300.3,242.2z M300.2,239.7l-12.5-13.3
			c1.9-1.8,4.2-3.2,6.7-4.1l6.1,17.2C300.4,239.5,300.3,239.6,300.2,239.7z M294.7,222.2c2-0.7,4.2-1.1,6.5-1.1c0.2,0,0.3,0,0.5,0
			l-0.6,18.2c-0.1,0-0.2,0-0.3,0L294.7,222.2z M301.3,242.5c0.1,0,0.2,0,0.3,0l6.1,17.2c-2,0.7-4.2,1.1-6.5,1.1c-0.2,0-0.3,0-0.5,0
			L301.3,242.5z M308,252l-4.7-8.7l4.5,4.9L308,252z M307.8,247.8l-5-5.4l-0.3-0.6c0,0,0.1-0.1,0.1-0.1l5.1,2.3L307.8,247.8z
			 M307.7,243.7l-5-2.3c0-0.1,0.1-0.2,0.1-0.4l4.8,0.2L307.7,243.7z M307.5,241l-4.7-0.2c0-0.1,0-0.2-0.1-0.3l4.7-1.7L307.5,241z
			 M307.4,238.5l-4.8,1.8c-0.1-0.1-0.1-0.2-0.2-0.3l4.8-4.5L307.4,238.5z M307.3,235l-5,4.7c-0.1-0.1-0.2-0.2-0.3-0.2l5-12.2
			L307.3,235z M306.9,226.7l-5.2,12.7c-0.1,0-0.2-0.1-0.3-0.1l0.6-18.2c1.6,0.1,3.2,0.3,4.7,0.8L306.9,226.7z M302.2,212.6
			c1.4,0,2.7,0.2,4,0.4l0.4,8.5c-1.5-0.4-3.1-0.7-4.7-0.7L302.2,212.6z M301.2,212.5c0.3,0,0.5,0,0.8,0l-0.3,8.2c-0.2,0-0.3,0-0.5,0
			c-2.3,0-4.5,0.4-6.6,1.1l-2.7-7.7C294.8,213.1,298,212.5,301.2,212.5z M291.6,214.2l2.7,7.7c-2.6,0.9-4.9,2.4-6.9,4.2l-5.6-6
			C284.7,217.5,288.1,215.5,291.6,214.2z M281.1,220.8c0.2-0.2,0.4-0.4,0.6-0.6l5.6,6c-1.8,1.7-3.3,3.8-4.4,6.1l-7.4-3.4
			C276.9,225.9,278.8,223.2,281.1,220.8z M273.4,235c0.4-2,1.1-4,1.9-5.8l7.4,3.4c-1.1,2.3-1.7,4.9-1.8,7.6l-6.1-0.2v-1.8h1.9v-0.8
			h1V235H273.4z M282.3,287H276l6.2-11.5V287z M286.2,267.2h-4.9v1.9h1v5.2l-6.8,12.6h-0.5v-3.3h1.1v-0.8h-1.1v-10.5h1.1v-0.8h-1.1
			V266c0.4,0.3,0.9,0.5,1.5,0.5c1.3,0,2.4-1.1,2.4-2.4c0-0.6-0.2-1.1-0.6-1.5l1.8-1.7c0.2,0.2,0.4,0.4,0.6,0.6
			c1.8,1.8,3.9,3.4,6.1,4.7L286.2,267.2z M287.7,267.2h-0.9l0.4-0.7c0.2,0.1,0.4,0.2,0.5,0.3V267.2z M287.7,265.9
			c-0.1,0-0.1-0.1-0.2-0.1l0.2-0.3V265.9z M287.7,261.9v2.5l-0.6,1.1c-2.1-1.2-4.1-2.8-5.9-4.5c-0.2-0.2-0.4-0.4-0.6-0.6l6-5.6
			c1.3,1.4,2.8,2.5,4.4,3.5l-1.9,3.6H287.7z M291.4,258.6c0.6,0.4,1.3,0.7,2,1l-2.7,6.5v-4.1h-1.1L291.4,258.6z M300.2,267.2h-3.9
			v-5.3h-2.8v5.3h-2.8v-0.5l2.9-7.1c2.1,0.9,4.4,1.4,6.8,1.4L300.2,267.2z M300.4,260.7c-2.3-0.1-4.6-0.6-6.6-1.4l6.9-16.9
			c0.1,0,0.2,0.1,0.3,0.1L300.4,260.7z M301.7,261.9v5.3h-1.2l0.2-6.1c0.2,0,0.3,0,0.5,0c2.3,0,4.5-0.4,6.6-1.1l0.7,1.9H301.7z"/>
	</g>
	<g>
		<path class="st2" d="M120,319.9h3.9L99.5,304c-0.8-0.5-1.9-0.3-2.5,0.5L87,319.9h6.4H120z"/>
		<path class="st3" d="M319.9,319.9h-0.2h-19.3h-18.2h-7.3h-4.7h-10.1h-11h-6.2h-1.4h-3h-20.8h-4.1h-1.5h-1.5h-0.8h-4.8h-3h-5.6H196
			h-2.5h-5.6h-3h-5.6h-1.5h-1.5H161h-4.4h-16.4h-3.7h-10.4h-2.2H120H93.4H87h-0.3h-5.6h-7.9c2.7,2.9,5.4,5.7,8.3,8.4
			c23.3,22.2,52.7,38.1,85.4,44.9c11.7,2.5,23.9,3.8,36.4,3.8c51.5,0,97.8-22,130.1-57.1H319.9z"/>
	</g>
	<path class="st4" d="M213.4,321.7H99.5v-9.6h73c0,0,4.7,1.4,9.9,2.8c4.6,1.2,15.7-2.6,18.1-2.6
		C207.4,312.3,213.4,321.7,213.4,321.7z"/>
	<path class="st5" d="M151.1,290.9c0-0.7-0.5-1-1.2-1.2c0,0-3.4-0.8-8.1-0.8c-4.7,0-8.5,0.8-8.5,0.8c-1.5,0.3-2.8,0.7-3.6,1.8
		l-7.5,10.3c-0.5,0.6-1.1,1-1.9,1.2c-2.2,0.4-6.9,1.4-9,1.8c-9.8,2.1-14.1,3.7-14.1,6.2v10.2l5.6,0c0.2-0.9,1.3-1.8,1.7-2.5
		c1.6-3,1.6-5.1,8.5-5.1s9.6,4.3,9.6,9.6c0,0.3,0.1,0.7,0.4,0.9c0.2,0.2,0.6,0.4,0.9,0.4h25.5c0.9,0,1.7-0.8,1.7-1.7V290.9z"/>
	<g>
		<path class="st6" d="M149.9,294.9c0,0-3.4-0.8-8.1-0.8c-4.7,0-8.5,0.8-8.5,0.8c-1.5,0.3-2.8,0.7-3.6,1.8l0,0.1
			c1.2-0.5,2.7-0.7,3.7-0.9c0,0,3.8-0.8,8.5-0.8c4.7,0,8.1,0.8,8.1,0.8c0.7,0.2,1.2,0.6,1.2,1.2v-1
			C151.1,295.5,150.6,295.1,149.9,294.9z"/>
	</g>
	<path class="st6" d="M121.1,303.4c-0.2,0.1-0.5,0.2-0.8,0.3c-2.2,0.4-6.9,1.4-9,1.8c-8.3,1.7-12.4,3.1-13.5,5c0.3,0,0.7,0,1,0
		c2-1.3,6.1-2.5,12.5-3.9c2-0.4,6.8-1.4,9-1.8c0.7-0.1,1.4-0.5,1.8-1.1C121.8,303.7,121.4,303.6,121.1,303.4z"/>
	<path class="st7" d="M120.4,308.2c-2.2,0.4-23,2.8-23,5.3v7.8l5.6,0c0.2-0.9,1.3-1.8,1.7-2.5c1.6-3,1.6-5.1,8.5-5.1
		s9.6,4.3,9.6,9.6c0,0.3,0.1,0.7,0.4,0.9c0.2,0.2,0.6,0.4,0.9,0.4h25.5c0.9,0,1.7-0.8,1.7-1.7V308
		C151.1,307.3,121.1,308,120.4,308.2z"/>
	<path class="st8" d="M121.7,318.4c0.6,1.4,0.9,3,0.9,4.8c0,0.3,0.1,0.7,0.4,0.9c0.2,0.2,0.6,0.4,0.9,0.4h25.5
		c0.9,0,1.7-0.8,1.7-1.7v-4.4H121.7z"/>
	<path class="st9" d="M125.5,324.2c0-1.7,0.2-3.4-0.5-4.8h24c0.6,0,1.1,0.4,1.2,0.9l0.9,2.8l0-4.7h-29.4c0.6,1.4,0.9,3,0.9,4.8
		c0,0.3,0.1,0.7,0.4,0.9c0.2,0.2,0.6,0.4,0.9,0.4h1.5C125.5,324.4,125.5,324.3,125.5,324.2z"/>
	<polygon class="st10" points="187.5,313.1 188.1,313.7 193.8,296.7 193.2,296 	"/>
	<polygon class="st7" points="187.9,313.1 193.5,296.4 193.2,296 187.5,313.1 188.1,313.7 188.2,313.4 	"/>
	<path class="st8" d="M105.8,316.4h-8.9c-0.3,0-0.6,0.1-0.8,0.3c-0.2,0.2-0.3,0.5-0.3,0.8l0.4,3.8c0.1,0.6,0.6,1,1.1,1h4.6
		c0.9,0,1.3-0.2,1.8-1.4C104.5,319.2,104.9,318.2,105.8,316.4z"/>
	<g>
		<path class="st10" d="M150.5,323.2h-25.5c-0.3,0-0.7-0.1-0.9-0.4c-0.2-0.2-0.4-0.6-0.4-0.9c0-5.3-2.7-9.6-9.6-9.6s-9.1,1.5-10.5,5
			c-0.3,0.7,0.1,1.8,0.6,2.4c0.2-0.5,0.3-0.7,0.4-1c1.3-2.6,1.4-5.2,8.4-5.2c6.9,0,9.6,4.3,9.6,9.6c0,0.3,0.1,0.7,0.4,0.9
			c0.2,0.2,0.6,0.4,0.9,0.4h25.5c0.8,0,1.5-0.6,1.7-1.4C150.9,323.2,150.7,323.2,150.5,323.2z"/>
	</g>
	<path class="st9" d="M104.1,316.4c-0.5,1-0.8,1.8-1.3,3.1c-0.5,1.2-0.9,1.4-1.8,1.4h-4.6c-0.1,0-0.2,0-0.2,0l0.1,0.5
		c0.1,0.6,0.6,1,1.1,1h4.6c0.9,0,1.3-0.2,1.8-1.4c0.7-1.9,1.1-2.9,2-4.6H104.1z"/>
	<g>
		<linearGradient id="SVGID_1_" gradientUnits="userSpaceOnUse" x1="113.1711" y1="315.2578" x2="113.1711" y2="330.5246">
			<stop  offset="0.4051" style="stop-color:#4D4D4D"/>
			<stop  offset="0.579" style="stop-color:#1A1A1A"/>
		</linearGradient>
		<circle class="st11" cx="113.2" cy="323.2" r="7.9"/>
		<circle class="st12" cx="113.2" cy="323.2" r="6.8"/>
		<circle class="st13" cx="113.2" cy="323.2" r="4"/>
		<circle class="st5" cx="113.2" cy="323.2" r="3.6"/>
		<circle class="st14" cx="113.2" cy="323.2" r="3.2"/>
		<circle class="st15" cx="113.2" cy="323.2" r="1.7"/>
		<linearGradient id="SVGID_2_" gradientUnits="userSpaceOnUse" x1="113.1711" y1="322.0728" x2="113.1711" y2="324.3096">
			<stop  offset="2.564100e-03" style="stop-color:#E6E6E6"/>
			<stop  offset="0.9974" style="stop-color:#999999"/>
		</linearGradient>
		<circle class="st16" cx="113.2" cy="323.2" r="1.1"/>
		<circle class="st17" cx="113.2" cy="323.2" r="0.8"/>
		<g>
			<g>
				<circle class="st18" cx="113.2" cy="320.8" r="0.3"/>
				<circle class="st19" cx="113.2" cy="320.8" r="0.3"/>
			</g>
			<g>
				
					<ellipse transform="matrix(0.809 -0.5878 0.5878 0.809 -167.4606 127.0919)" class="st18" cx="111.8" cy="321.2" rx="0.3" ry="0.3"/>
				
					<ellipse transform="matrix(0.809 -0.5878 0.5878 0.809 -167.4749 127.0283)" class="st19" cx="111.7" cy="321.2" rx="0.3" ry="0.3"/>
			</g>
			<g>
				
					<ellipse transform="matrix(0.309 -0.9511 0.9511 0.309 -229.9581 328.2734)" class="st18" cx="110.9" cy="322.4" rx="0.3" ry="0.3"/>
				
					<ellipse transform="matrix(0.309 -0.9511 0.9511 0.309 -230.0671 328.2379)" class="st19" cx="110.9" cy="322.5" rx="0.3" ry="0.3"/>
			</g>
			<g>
				
					<ellipse transform="matrix(0.9511 -0.309 0.309 0.9511 -94.647 50.1149)" class="st18" cx="110.9" cy="323.9" rx="0.3" ry="0.3"/>
				
					<ellipse transform="matrix(0.9511 -0.309 0.309 0.9511 -94.6854 50.1163)" class="st19" cx="110.9" cy="324" rx="0.3" ry="0.3"/>
			</g>
			<g>
				
					<ellipse transform="matrix(0.5878 -0.809 0.809 0.5878 -216.9424 224.3813)" class="st18" cx="111.7" cy="325.1" rx="0.3" ry="0.3"/>
				
					<ellipse transform="matrix(0.5878 -0.809 0.809 0.5878 -217.0055 224.4451)" class="st19" cx="111.7" cy="325.2" rx="0.3" ry="0.3"/>
			</g>
			<g>
				<circle class="st18" cx="113.1" cy="325.6" r="0.3"/>
				<circle class="st19" cx="113.2" cy="325.6" r="0.3"/>
			</g>
			<g>
				
					<ellipse transform="matrix(0.809 -0.5878 0.5878 0.809 -169.268 129.414)" class="st18" cx="114.5" cy="325.2" rx="0.3" ry="0.3"/>
				
					<ellipse transform="matrix(0.809 -0.5878 0.5878 0.809 -169.2415 129.4599)" class="st19" cx="114.6" cy="325.2" rx="0.3" ry="0.3"/>
			</g>
			<g>
				
					<ellipse transform="matrix(0.309 -0.9511 0.9511 0.309 -228.411 333.6349)" class="st18" cx="115.4" cy="324" rx="0.3" ry="0.3"/>
				
					<ellipse transform="matrix(0.309 -0.9511 0.9511 0.309 -228.302 333.6704)" class="st19" cx="115.5" cy="324" rx="0.3" ry="0.3"/>
			</g>
			<g>
				
					<ellipse transform="matrix(0.9511 -0.309 0.309 0.9511 -94.0171 51.4599)" class="st18" cx="115.5" cy="322.5" rx="0.3" ry="0.3"/>
				
					<ellipse transform="matrix(0.9511 -0.309 0.309 0.9511 -93.9951 51.4709)" class="st19" cx="115.5" cy="322.5" rx="0.3" ry="0.3"/>
			</g>
			<g>
				
					<ellipse transform="matrix(0.5878 -0.809 0.809 0.5878 -212.7101 225.1966)" class="st18" cx="114.6" cy="321.3" rx="0.3" ry="0.3"/>
				
					<ellipse transform="matrix(0.5878 -0.809 0.809 0.5878 -212.6471 225.1327)" class="st19" cx="114.6" cy="321.2" rx="0.3" ry="0.3"/>
			</g>
		</g>
	</g>
	<path class="st20" d="M148,301.4c0,0.6-0.2,1.2-0.7,1.7c-0.4,0.4-1,0.7-1.7,0.7h-14.9c-0.4,0-0.7-0.2-0.9-0.5c-0.2-0.3-0.2-0.7,0-1
		l4.7-8.8c0.5-1,1.6-1.7,2.8-1.7h8.4c1.3,0,2.3,1,2.3,2.3L148,301.4z"/>
	<path class="st21" d="M130.6,303.3c-0.2,0-0.4-0.1-0.5-0.3c-0.1-0.2-0.1-0.4,0-0.6l4.7-8.7c0.5-0.9,1.4-1.5,2.4-1.5h8.4
		c1,0,1.9,0.8,1.9,1.9l0,7.3c0,0.5-0.2,1-0.6,1.3c-0.4,0.4-0.8,0.6-1.3,0.6H130.6z"/>
	<path class="st22" d="M147.5,294.1c0-0.9-0.7-1.7-1.6-1.9c0,0,0,0.1,0,0.1l0,7.3c0,0.5-0.2,1-0.6,1.3c-0.4,0.4-0.8,0.6-1.3,0.6
		h-13.4l-0.5,0.9c-0.1,0.2-0.1,0.4,0,0.6c0.1,0.2,0.3,0.3,0.5,0.3h15c0.5,0,1-0.2,1.3-0.6c0.4-0.4,0.6-0.8,0.6-1.3L147.5,294.1z"/>
	<g>
		<path class="st23" d="M147.2,321c0,0-0.1,0-0.1,0l-0.2,0h-16.8c-0.5,0-0.9-0.2-1.1-0.6c-0.2-0.3-1.2-11.5-1.4-15.2
			c-0.1-0.8,0.2-2,0.4-2.4l5-10c0.6-1.3,1.9-2,3.3-2h10.3c2.4,0,2.8,0.7,2.8,2.8l0,9.3c0,0.2-0.5,16.7-0.9,17.4
			C148.1,320.9,147.8,321,147.2,321z M136.3,290.9c-1.3,0-2.5,0.7-3.1,1.9l-5,10c-0.2,0.3-0.5,1.5-0.4,2.3
			c0.3,4.2,1.2,14.7,1.4,15.1c0.2,0.3,0.6,0.5,0.9,0.5l17,0c0.6,0,0.8,0,1.3-0.7c0.4-0.6,0.9-16.3,0.9-17.3l0-9.3
			c0-2-0.3-2.6-2.6-2.6H136.3z"/>
	</g>
	<path class="st21" d="M123.7,302.9c1,0.1,1.9-0.4,2.4-1.2l4.9-8.6c0.2-0.3,0.2-0.6,0-0.9c-0.2-0.3-0.5-0.5-0.8-0.5h-0.8l-7.7,10.6
		C121.7,302.6,122.7,302.8,123.7,302.9z"/>
	<path class="st22" d="M126.9,300.3c-0.5,0.9-1.5,1.3-2.4,1.2c-0.7-0.1-1.5-0.2-1.8-0.4l-0.8,1.1c-0.2,0.3,0.9,0.5,1.9,0.6
		c1,0.1,1.9-0.4,2.4-1.2l4.9-8.6c0.1-0.1,0.1-0.2,0.1-0.3L126.9,300.3z"/>
	<path class="st20" d="M131.1,293.1c0.2-0.3,0.2-0.6,0-0.9c-0.2-0.3-0.5-0.5-0.8-0.5h-0.6c0.3,0,0.8,0.2,0.9,0.5s0.2,0.6,0,0.9
		l-4.9,8.6c-0.4,0.7-1.2,1.1-2,1.2c1,0.1,1.9-0.4,2.4-1.2L131.1,293.1z"/>
	<path class="st24" d="M146.8,321.9c-0.2,0.5-0.7,0.9-1.2,0.9h-13.3c-0.6,0-1.1-0.4-1.2-0.9l-0.3-1h16.5L146.8,321.9z"/>
	<path class="st25" d="M145.5,322.1h-13.3c-0.9,0-1.6-1.2-1.6-1.2l0.3,1c0.2,0.5,0.7,0.9,1.2,0.9h13.3c0.6,0,1.1-0.4,1.2-0.9l0.3-1
		C147.1,320.9,146.6,322.1,145.5,322.1z"/>
	<path class="st26" d="M97.5,316.8c-0.3,0-0.6,0.1-0.8,0.3c-0.2,0.2-0.3,0.5-0.3,0.8l0.3,2.6c0,0,0,0,0.1,0l0.1-2.2
		c0-0.3,0.1-0.6,0.3-0.8s0.5-0.3,0.8-0.3l3.6-0.4c0,0,0,0,0,0H97.5z"/>
	<path class="st15" d="M100.3,311.5c0-0.4-0.3-0.6-0.7-0.6h-2.3c0,0,0,0.1,0,0.1v4.8h2.4c0.3,0,0.5-0.1,0.7-0.3
		c0.2-0.2,0.3-0.4,0.2-0.7L100.3,311.5z"/>
	<path class="st6" d="M100.2,311.7c0-0.3-0.3-0.6-0.6-0.6h-2.2c0,0-0.2,0.3-0.2,2.2c0,1.7,0.2,2.2,0.2,2.2h2.3
		c0.2,0,0.4-0.1,0.6-0.3c0.2-0.2,0.2-0.4,0.2-0.6L100.2,311.7z"/>
	<path class="st27" d="M98,313.8c0-0.1,0-0.3,0-0.4c0-1.9,0.2-2.2,0.2-2.2h-0.7c0,0-0.2,0.3-0.2,2.2C97.4,313.5,97.8,313.8,98,313.8
		z"/>
	<path class="st28" d="M100.5,314.7l-0.3-2.9c0-0.3-0.3-0.6-0.6-0.6H99c0.3,0,0.6,0.2,0.6,0.6l0.3,2.9c0,0.2-0.1,0.4-0.2,0.6
		c-0.2,0.2-0.4,0.3-0.6,0.3h0.6c0.2,0,0.4-0.1,0.6-0.3C100.4,315.1,100.5,314.9,100.5,314.7z"/>
	<path class="st29" d="M100.4,313.5c0,0.1-0.1,0.1-0.1,0.2c-0.2,0.2-0.4,0.3-0.6,0.3h-2.6c0.1,1.1,0.2,1.7,0.2,1.7h2.3
		c0.2,0,0.4-0.1,0.6-0.3c0.2-0.2,0.2-0.4,0.2-0.6L100.4,313.5z"/>
	<g>
		<path class="st30" d="M97.4,313.9c0.1,1.1,0.2,1.7,0.2,1.7h0.7c0,0-0.2-0.6-0.2-1.7H97.4z"/>
	</g>
	<path class="st31" d="M100.5,314.7l-0.1-1.2c0,0-0.1,0.1-0.1,0.1c-0.1,0.1-0.3,0.2-0.5,0.3l0.1,0.8c0,0.2-0.1,0.4-0.2,0.6
		c-0.2,0.2-0.4,0.3-0.6,0.3h0.6c0.2,0,0.4-0.1,0.6-0.3C100.4,315.1,100.5,314.9,100.5,314.7z"/>
	<ellipse class="st32" cx="145.9" cy="306.2" rx="2.1" ry="0.7"/>
	<rect x="143.4" y="305.8" class="st5" width="4.9" height="0.7"/>
	<path class="st8" d="M210.4,292.4l-0.1-3.2l-45.7,13.2l-4.4-8h-4.9l4.8,15.5h8.5l-1.4-2.5c-0.2-0.3-0.2-0.7-0.1-1.1
		c0.1-0.3,0.4-0.6,0.8-0.7L210.4,292.4z"/>
	<path class="st14" d="M199.4,299.8c0.1,0.3-0.1,0.6-0.4,0.7l-5,1.6c-0.3,0.1-0.6,0.1-0.8-0.1c-0.3-0.1-0.4-0.4-0.5-0.7l-0.3-1
		l6.7-1.9L199.4,299.8z"/>
	<path class="st5" d="M187.1,312.9l1.4,0.8l3.1-9.5c0-0.1,0-0.3-0.1-0.4s-0.2-0.2-0.4-0.2h-0.6c-0.2,0-0.4,0.1-0.4,0.3L187.1,312.9z
		"/>
	<path class="st33" d="M191.7,304.2c0-0.1,0-0.3-0.1-0.4c-0.2-0.2-0.4-0.2-1-0.2c-0.4,0-0.5,0.4-0.5,0.6c0.5,0,0.7,0,0.9,0.2
		c0.2,0.3,0.3-0.3-2.8,9.1l0.4,0.2L191.7,304.2z"/>
	<path class="st34" d="M159.4,295.2c0.3,0,0.6,0.2,0.7,0.5l4.1,7.6l45.7-13.2l0.1,2.4l0.3-0.1l-0.1-3.2l-45.7,13.2l-4.4-8h-4.9
		l0.2,0.5L159.4,295.2z"/>
	<polygon class="st9" points="160.2,309.9 168.7,309.9 167.3,307.2 159.4,307.2 	"/>
	<path class="st5" d="M215.2,317.2c0-0.3-0.1-0.5-0.4-0.7l-8.4-4.9c-0.4-0.3-0.9-0.4-1.5-0.4h-26.4l-1.3-2.4c-0.3-0.6-1-1-1.6-1H153
		c-0.4,0-0.8,0.3-0.8,0.8V323c0,0.8,0.6,1.4,1.4,1.4h36.7c0.2,0,0.5-0.1,0.6-0.3c0.2-0.2,0.3-0.4,0.3-0.6c0-0.1,0-0.1,0-0.2
		c0-5.3,4.3-9.5,9.5-9.5c5.3,0,9.5,4.3,9.5,9.5c0,0.1,0,0.1,0,0.2c0,0.2,0.1,0.5,0.3,0.6c0.2,0.2,0.4,0.3,0.6,0.3h2.2
		c1,0,1.9-0.8,1.9-1.9V317.2z"/>
	<path class="st33" d="M178.5,311.2l-1.3-2.4c-0.3-0.6-1-1-1.6-1c-24,0-22.6,0-22.8,0.1c-0.3,0.1-0.5,0.4-0.5,0.7V323
		c0,0.6,0.4,1.1,0.9,1.3v-15c0-0.3,0.3-0.6,0.6-0.6h22.5l2.1,3.1L178.5,311.2z"/>
	<path class="st14" d="M211.1,323.4c0-0.1,0-0.1,0-0.2c0-5.3-4.3-9.5-9.5-9.5c-0.2,0-0.3,0-0.5,0c5,0.2,9.1,4.4,9.1,9.5
		c0,0.1,0,0.1,0,0.2c0,0.2,0.1,0.5,0.3,0.6c0.2,0.2,0.4,0.3,0.6,0.3h0.9c-0.2,0-0.5-0.1-0.6-0.3
		C211.2,323.9,211.1,323.6,211.1,323.4z"/>
	<g>
		<path class="st8" d="M191.2,323.2c0-1.7,0.5-3.4,1.3-4.8h-40.2v4.5c0,0.8,0.6,1.4,1.4,1.4h36.7c0.2,0,0.5-0.1,0.6-0.3
			c0.2-0.2,0.3-0.4,0.3-0.6C191.2,323.3,191.2,323.3,191.2,323.2z"/>
		<path class="st8" d="M192.4,318.4h-40.2v4.5c0,0.8,0.6,1.4,1.4,1.4h36.7c0.2,0,0.5-0.1,0.6-0.3c0.2-0.2,0.3-0.4,0.3-0.6
			c0-0.1,0-0.1,0-0.2C191.2,321.5,191.6,319.8,192.4,318.4z"/>
		<path class="st35" d="M153.1,323v-4.5h-0.9v4.5c0,0.8,0.6,1.4,1.4,1.4h0.9C153.7,324.3,153.1,323.7,153.1,323z"/>
		<path class="st9" d="M154.4,319.4h34.1c1.3,0,1.7,3.1,1.8,3c0.3-0.2,0.9-3.6,0.9-3.9c0,0,0,0,0-0.1h-39c0,0.4,0,3.4,0,3.4
			C152.5,321.4,152.9,319.4,154.4,319.4z"/>
		<path class="st36" d="M153.1,318.4h-0.9v3.4c0.2-0.2,0.4-1.1,0.9-1.8V318.4z"/>
		<path class="st8" d="M208.9,318.4c0.8,1.4,1.3,3,1.3,4.8c0,0.4,0.6,0.1,0.6,0.5l2.5,0.6c1,0,1.9-0.8,1.9-1.9v-4H208.9z"/>
	</g>
	<g>
		<path class="st37" d="M157.5,294.1c-0.9,0-1.7,0.5-1.7,1.2v2.4h3.4v-2.4C159.2,294.7,158.5,294.1,157.5,294.1z"/>
		<path class="st38" d="M157,294.3c-0.5,0.2-0.8,0.6-0.8,1.1v2.4h0.3v-2.4C156.4,295,156.6,294.6,157,294.3z"/>
		<path class="st39" d="M157.5,294.1c-0.1,0-0.3,0-0.4,0c0.8,0.1,1.3,0.6,1.3,1.2v2.4h0.7v-2.4C159.2,294.7,158.5,294.1,157.5,294.1
			z"/>
		<path class="st8" d="M159.8,298.1h-4.5V298c0-0.3,0.3-0.6,0.6-0.6h3.3c0.3,0,0.6,0.3,0.6,0.6V298.1z"/>
	</g>
	<polygon class="st9" points="160.2,299.7 155.4,299.7 155.5,300.2 160.5,300.2 	"/>
	<rect x="155.3" y="298" class="st9" width="4.5" height="0.3"/>
	<path class="st8" d="M160.1,299.8H155c-0.4,0-0.7-0.3-0.7-0.7v-0.3c0-0.4,0.3-0.7,0.7-0.7h5.2c0.4,0,0.7,0.3,0.7,0.7v0.3
		C160.8,299.5,160.5,299.8,160.1,299.8z"/>
	<path class="st9" d="M213,319.4h2.2v-1H210c0,0.4,0.9,3.4,0.9,3.4C211.1,321.4,211.6,319.4,213,319.4z"/>
	<path class="st10" d="M213.3,323.2H212c-0.2,0-0.5-0.1-0.6-0.3c-0.2-0.2-0.3-0.4-0.2-0.7c0-0.1,0-0.2,0-0.2
		c-0.1-5.4-5.2-9.5-10.4-9.5c-5.3,0-10.4,4.3-10.4,9.5c0,0,0,0.1,0,0.2c0,0.2-0.1,0.5-0.2,0.7c-0.2,0.2-0.4,0.3-0.6,0.3h-35.8
		c-0.8,0-1.4-0.6-1.4-1.4v1.1c0,0.8,0.6,1.4,1.4,1.4h36.7c0.2,0,0.5-0.1,0.6-0.3c0.2-0.2,0.3-0.4,0.3-0.6c0-0.1,0-0.1,0-0.2
		c0-5.3,4.3-9.5,9.5-9.5c5.3,0,9.5,4.3,9.5,9.5c0,0.1,0,0.1,0,0.2c0,0.2,0.1,0.5,0.3,0.6c0.2,0.2,0.4,0.3,0.6,0.3h2.2
		c1,0,1.9-0.8,1.9-1.9C215.2,322.4,214.8,323.2,213.3,323.2z"/>
	<path class="st40" d="M153.1,324.2L153.1,324.2l0-1.1c-0.5-0.2-0.9-0.7-0.9-1.3C152.2,322.6,152,323.8,153.1,324.2z"/>
	<g>
		<linearGradient id="SVGID_3_" gradientUnits="userSpaceOnUse" x1="200.6055" y1="315.2578" x2="200.6055" y2="330.5246">
			<stop  offset="0.4051" style="stop-color:#4D4D4D"/>
			<stop  offset="0.579" style="stop-color:#1A1A1A"/>
		</linearGradient>
		<circle class="st41" cx="200.6" cy="323.2" r="7.9"/>
		<circle class="st12" cx="200.6" cy="323.2" r="6.8"/>
		<circle class="st13" cx="200.6" cy="323.2" r="4"/>
		<circle class="st5" cx="200.6" cy="323.2" r="3.6"/>
		<circle class="st14" cx="200.6" cy="323.2" r="3.2"/>
		<circle class="st15" cx="200.6" cy="323.2" r="1.7"/>
		<linearGradient id="SVGID_4_" gradientUnits="userSpaceOnUse" x1="200.6055" y1="322.0728" x2="200.6055" y2="324.3096">
			<stop  offset="2.564100e-03" style="stop-color:#E6E6E6"/>
			<stop  offset="0.9974" style="stop-color:#999999"/>
		</linearGradient>
		<circle class="st42" cx="200.6" cy="323.2" r="1.1"/>
		<circle class="st17" cx="200.6" cy="323.2" r="0.8"/>
		<g>
			<g>
				<circle class="st18" cx="200.7" cy="320.8" r="0.3"/>
				<circle class="st19" cx="200.6" cy="320.8" r="0.3"/>
			</g>
			<g>
				
					<ellipse transform="matrix(0.809 -0.5878 0.5878 0.809 -150.759 178.4787)" class="st18" cx="199.3" cy="321.2" rx="0.3" ry="0.3"/>
				
					<ellipse transform="matrix(0.809 -0.5878 0.5878 0.809 -150.7802 178.4279)" class="st19" cx="199.2" cy="321.2" rx="0.3" ry="0.3"/>
			</g>
			<g>
				
					<ellipse transform="matrix(0.309 -0.9511 0.9511 0.309 -169.541 411.4391)" class="st18" cx="198.4" cy="322.4" rx="0.3" ry="0.3"/>
				
					<ellipse transform="matrix(0.309 -0.9511 0.9511 0.309 -169.65 411.4036)" class="st19" cx="198.3" cy="322.5" rx="0.3" ry="0.3"/>
			</g>
			<g>
				
					<ellipse transform="matrix(0.9511 -0.309 0.309 0.9511 -90.3755 77.1411)" class="st18" cx="198.3" cy="323.9" rx="0.3" ry="0.3"/>
				
					<ellipse transform="matrix(0.9511 -0.309 0.309 0.9511 -90.3982 77.1277)" class="st19" cx="198.3" cy="324" rx="0.3" ry="0.3"/>
			</g>
			<g>
				
					<ellipse transform="matrix(0.5878 -0.809 0.809 0.5878 -180.8995 295.1106)" class="st18" cx="199.1" cy="325.1" rx="0.3" ry="0.3"/>
				
					<ellipse transform="matrix(0.5878 -0.809 0.809 0.5878 -180.9622 295.1731)" class="st19" cx="199.2" cy="325.2" rx="0.3" ry="0.3"/>
			</g>
			<g>
				<circle class="st18" cx="200.5" cy="325.6" r="0.3"/>
				<circle class="st19" cx="200.6" cy="325.6" r="0.3"/>
			</g>
			<g>
				
					<ellipse transform="matrix(0.809 -0.5878 0.5878 0.809 -152.565 180.8026)" class="st18" cx="201.9" cy="325.2" rx="0.3" ry="0.3"/>
				
					<ellipse transform="matrix(0.809 -0.5878 0.5878 0.809 -152.5427 180.8508)" class="st19" cx="202" cy="325.2" rx="0.3" ry="0.3"/>
			</g>
			<g>
				
					<ellipse transform="matrix(0.309 -0.9511 0.9511 0.309 -167.9938 416.8008)" class="st18" cx="202.8" cy="324" rx="0.3" ry="0.3"/>
				
					<ellipse transform="matrix(0.309 -0.9511 0.9511 0.309 -167.8848 416.8362)" class="st19" cx="202.9" cy="324" rx="0.3" ry="0.3"/>
			</g>
			<g>
				
					<ellipse transform="matrix(0.9511 -0.309 0.309 0.9511 -89.7455 78.4862)" class="st18" cx="202.9" cy="322.5" rx="0.3" ry="0.3"/>
				
					<ellipse transform="matrix(0.9511 -0.309 0.309 0.9511 -89.708 78.4821)" class="st19" cx="202.9" cy="322.5" rx="0.3" ry="0.3"/>
			</g>
			<g>
				
					<ellipse transform="matrix(0.5878 -0.809 0.809 0.5878 -176.6677 295.933)" class="st18" cx="202.1" cy="321.3" rx="0.3" ry="0.3"/>
				
					<ellipse transform="matrix(0.5878 -0.809 0.809 0.5878 -176.6051 295.8704)" class="st19" cx="202" cy="321.2" rx="0.3" ry="0.3"/>
			</g>
		</g>
	</g>
	<path class="st8" d="M220.3,317.5c0.9,0.9,1,0.9,0.8,2c-0.4,1.2,1.1,1.7,1.8,0.9c0.2-0.3,0.1-0.6,0-0.8c-0.2-0.3,0.1-0.4,0.3-0.1
		c0.2,0.3,0.4,0.5,0.1,1.1c-0.9,1.3-2.4,1.1-2.8,0.2c-0.2-0.4-0.3-0.7-0.2-1.1c0.1-0.3,0.2-0.9,0-0.9c0,0-0.3-0.5-0.3-0.5
		L220.3,317.5z"/>
	<g>
		<linearGradient id="SVGID_5_" gradientUnits="userSpaceOnUse" x1="182.6043" y1="301.4148" x2="182.6043" y2="311.2457">
			<stop  offset="0.4051" style="stop-color:#4D4D4D"/>
			<stop  offset="0.579" style="stop-color:#1A1A1A"/>
		</linearGradient>
		<circle class="st43" cx="182.6" cy="306.5" r="5.1"/>
		<circle class="st12" cx="182.6" cy="306.5" r="4.4"/>
		<circle class="st13" cx="182.6" cy="306.5" r="2.6"/>
		<circle class="st5" cx="182.6" cy="306.5" r="2.3"/>
		<circle class="st14" cx="182.6" cy="306.5" r="2"/>
		<circle class="st15" cx="182.6" cy="306.5" r="1.1"/>
		<linearGradient id="SVGID_6_" gradientUnits="userSpaceOnUse" x1="182.6043" y1="305.8033" x2="182.6043" y2="307.2436">
			<stop  offset="2.564100e-03" style="stop-color:#E6E6E6"/>
			<stop  offset="0.9974" style="stop-color:#999999"/>
		</linearGradient>
		<circle class="st44" cx="182.6" cy="306.5" r="0.7"/>
		<circle class="st17" cx="182.6" cy="306.5" r="0.5"/>
		<g>
			
				<ellipse transform="matrix(0.8604 -0.5096 0.5096 0.8604 -130.1284 135.2988)" class="st45" cx="181.9" cy="305.2" rx="0.2" ry="0.2"/>
			
				<ellipse transform="matrix(0.9758 -0.2188 0.2188 0.9758 -62.757 47.0758)" class="st45" cx="181.1" cy="306.9" rx="0.2" ry="0.2"/>
			
				<ellipse transform="matrix(9.342306e-02 -0.9956 0.9956 9.342306e-02 -141.2484 461.0308)" class="st45" cx="182.5" cy="308.1" rx="0.2" ry="0.2"/>
			
				<ellipse transform="matrix(0.3965 -0.918 0.918 0.3965 -170.8397 354.3873)" class="st45" cx="184.1" cy="307.1" rx="0.2" ry="0.2"/>
			
				<ellipse transform="matrix(0.6608 -0.7506 0.7506 0.6608 -166.851 241.4688)" class="st45" cx="183.7" cy="305.3" rx="0.2" ry="0.2"/>
		</g>
	</g>
	<path class="st26" d="M223.7,320.9l0,1l-1.1-1.2c-0.1-0.1-0.1-0.2,0-0.3l0.1-0.1c0.1-0.1,0.2-0.1,0.3,0L223.7,320.9z"/>
	<path class="st33" d="M206.4,311.6c-0.4-0.3-0.9-0.4-1.5-0.4h-26.4l-0.2-0.4v1h28.5L206.4,311.6z"/>
	<path class="st15" d="M213.4,321.3c0,0.4,0.4,0.8,0.8,0.8h1.1c0,0,0-4.6,0-4.6h-1c-0.4,0-0.8,0.4-0.8,0.8V321.3z"/>
	<path class="st46" d="M214.7,321.9h0.3c0.2,0,0.4-0.2,0.4-0.4v-3.3c0-0.2-0.2-0.4-0.4-0.4h-0.3c-0.6,0-1.2,0.5-1.2,1.2v1.8
		C213.5,321.4,214,321.9,214.7,321.9z"/>
	<path class="st47" d="M214.6,321.5c-0.4,0-0.8-0.4-0.8-0.8v-2.6c0-0.1,0-0.2,0.1-0.3c-0.2,0.1-0.4,0.4-0.4,0.7v2.6
		c0,0.4,0.4,0.8,0.8,0.8h0.8c0.2,0,0.3-0.1,0.3-0.3v-0.1H214.6z"/>
	<g>
		<rect x="130" y="301.8" transform="matrix(0.787 -0.617 0.617 0.787 -158.0591 146.0655)" class="st20" width="5" height="0.3"/>
	</g>
	<g>
		
			<rect x="130.5" y="302.8" transform="matrix(0.9677 -0.2523 0.2523 0.9677 -72.126 43.2369)" class="st20" width="4.2" height="0.3"/>
	</g>
	<path class="st14" d="M136.5,303.5c0,0.3-0.3,0.6-0.6,0.6h-1c-0.6,0-1.1-0.5-1.1-1.1v-2.7c0-0.8,0.5-1.1,1.1-1.1h1
		c0.3,0,0.6,0.3,0.6,0.6V303.5z"/>
	<path class="st48" d="M136.3,303.5h-1.2c-0.5,0-0.9-0.4-0.9-0.9v-2.9c0-0.1,0-0.1,0-0.2c-0.3,0.2-0.4,0.5-0.4,0.8v2.9
		c0,0.5,0.4,0.9,0.9,0.9h1.2c0.3,0,0.5-0.2,0.5-0.5v-0.1C136.4,303.5,136.4,303.5,136.3,303.5z"/>
	<polygon class="st9" points="206.3,295.3 206.1,296.3 209,295.8 209.8,297.9 210.4,297.7 210.3,294.5 	"/>
	<path class="st8" d="M211.8,299.8c0.3-0.1,0.5-0.4,0.4-0.7l-0.9-4.9c-0.1-0.4-0.3-0.8-0.7-1c-0.4-0.2-0.8-0.3-1.2-0.1l-3.2,1
		c-0.2,0.1-0.4,0.2-0.5,0.4c-0.1,0.2-0.1,0.4-0.1,0.6l0.4,1.3l3.2-0.9l1.5,4.1c0.1,0.3,0.4,0.5,0.8,0.4L211.8,299.8z"/>
	<path class="st49" d="M165.7,305c1.3,0,2.3-1,2.3-2.3c0-0.4-0.1-0.8-0.3-1.1l-3.1,0.9l-0.7-1.2c-0.3,0.4-0.5,0.9-0.5,1.5
		C163.4,304,164.5,305,165.7,305z"/>
	<g>
		<circle class="st6" cx="165.7" cy="302.1" r="2.3"/>
		<circle class="st14" cx="165.7" cy="302.1" r="2.1"/>
		<circle class="st28" cx="165.7" cy="302.1" r="1"/>
	</g>
	<circle class="st9" cx="210" cy="283.2" r="0.5"/>
	<circle class="st50" cx="210" cy="283.2" r="0.4"/>
	<ellipse transform="matrix(0.7065 -0.7077 0.7077 0.7065 -160.3651 249.312)" class="st8" cx="220.4" cy="318" rx="0.8" ry="0.8"/>
	<g>
		
			<rect x="215.7" y="293.1" transform="matrix(0.938 -0.3466 0.3466 0.938 -92.6567 93.7666)" class="st8" width="0.3" height="25.7"/>
	</g>
	<g>
		
			<rect x="165.3" y="295.1" transform="matrix(0.9594 -0.2819 0.2819 0.9594 -75.6649 64.5251)" class="st8" width="42.3" height="0.3"/>
	</g>
	<g>
		<linearGradient id="SVGID_7_" gradientUnits="userSpaceOnUse" x1="82.0717" y1="168.9172" x2="82.0717" y2="54.2961">
			<stop  offset="0" style="stop-color:#F69453"/>
			<stop  offset="0.5" style="stop-color:#F37521"/>
			<stop  offset="1" style="stop-color:#D4622A"/>
		</linearGradient>
		<path class="st51" d="M82.1,116c-1.4,0-2.7-0.5-3.7-1.5c-1-1-1.5-2.2-1.5-3.7s0.5-2.7,1.5-3.7c1-1,2.2-1.5,3.7-1.5
			c1.4,0,2.7,0.5,3.7,1.5c1,1,1.5,2.2,1.5,3.7s-0.5,2.7-1.5,3.7C84.7,115.5,83.5,116,82.1,116z M87.1,120.7v29.7H77v-29.7H87.1z"/>
		<linearGradient id="SVGID_8_" gradientUnits="userSpaceOnUse" x1="118.8017" y1="168.9172" x2="118.8017" y2="54.2961">
			<stop  offset="0" style="stop-color:#F69453"/>
			<stop  offset="0.5" style="stop-color:#F37521"/>
			<stop  offset="1" style="stop-color:#D4622A"/>
		</linearGradient>
		<path class="st52" d="M131.9,149.5h-26.2v-44h10.1v33.9h16.1V149.5z"/>
		<linearGradient id="SVGID_9_" gradientUnits="userSpaceOnUse" x1="153.4343" y1="168.9172" x2="153.4343" y2="54.2961">
			<stop  offset="0" style="stop-color:#F69453"/>
			<stop  offset="0.5" style="stop-color:#F37521"/>
			<stop  offset="1" style="stop-color:#D4622A"/>
		</linearGradient>
		<path class="st53" d="M158.5,149.5h-10.1v-44h10.1V149.5z"/>
		<linearGradient id="SVGID_10_" gradientUnits="userSpaceOnUse" x1="189.8348" y1="168.9172" x2="189.8348" y2="54.2961">
			<stop  offset="0" style="stop-color:#F69453"/>
			<stop  offset="0.5" style="stop-color:#F37521"/>
			<stop  offset="1" style="stop-color:#D4622A"/>
		</linearGradient>
		<path class="st54" d="M189.9,150.3c-1.4,0-2.8-0.2-4.2-0.6c-1.4-0.4-2.7-1-3.9-1.8c-2.2-1.4-3.8-3.2-5-5.4
			c-1.2-2.2-1.8-4.6-1.8-7.3h10.1c0,1.2,0.3,2.1,0.8,2.8c0.5,0.7,1,1.1,1.4,1.3c0.7,0.5,1.5,0.7,2.3,0.8c0.8,0,1.7-0.1,2.5-0.5
			c0.6-0.2,1-0.5,1.3-0.9c0.3-0.4,0.6-0.7,0.8-1c0.2-0.3,0.3-0.7,0.3-1c0-0.3,0.1-0.6,0.1-0.8c0-0.2,0-0.5-0.1-0.8
			c0-0.3-0.1-0.7-0.3-1c-0.2-0.4-0.4-0.7-0.8-1c-0.3-0.3-0.8-0.6-1.3-0.9c-0.4-0.2-0.9-0.4-1.4-0.5c-0.5-0.2-1-0.3-1.6-0.5
			c-1-0.3-2-0.7-3.1-1.1c-1.1-0.4-2.2-0.9-3.2-1.6c-1.4-0.9-2.6-2-3.5-3.3c-1-1.3-1.6-2.7-2.1-4.3c-0.4-1.5-0.6-3.1-0.4-4.7
			c0.1-1.6,0.6-3.2,1.3-4.6c0.7-1.4,1.6-2.5,2.7-3.5c1.1-1,2.3-1.8,3.6-2.4c1.3-0.6,2.7-0.9,4.3-1c1.5-0.1,3.1,0,4.6,0.4
			c1.5,0.4,2.9,0.9,4.1,1.7c1.2,0.8,2.3,1.7,3.2,2.8c0.9,1.1,1.6,2.3,2.1,3.7c0.5,1.4,0.7,2.8,0.7,4.3h-10.1c0-0.9-0.3-1.6-0.9-1.9
			c-0.6-0.4-1.1-0.6-1.5-0.7c-0.1,0-0.3,0-0.6-0.1c-0.3-0.1-0.6-0.1-1,0c-0.4,0.1-0.8,0.2-1.2,0.4c-0.4,0.2-0.7,0.6-1,1
			c-0.3,0.6-0.4,1.3-0.2,2c0.2,0.7,0.6,1.2,1.2,1.6c0.6,0.3,1.2,0.6,1.9,0.9c0.7,0.3,1.4,0.5,2.2,0.7c0.7,0.2,1.4,0.4,2.1,0.7
			c0.7,0.2,1.4,0.5,2.1,0.8c2.6,1.2,4.7,3,6.2,5.3c1.5,2.3,2.2,4.9,2.2,7.7c0,2.8-0.7,5.4-2.2,7.7c-1.5,2.3-3.5,4.1-6.2,5.3
			c-1,0.5-2.1,0.8-3.2,1C192.1,150.2,191,150.3,189.9,150.3z"/>
		<linearGradient id="SVGID_11_" gradientUnits="userSpaceOnUse" x1="233.0953" y1="168.9172" x2="233.0953" y2="54.2961">
			<stop  offset="0" style="stop-color:#F69453"/>
			<stop  offset="0.5" style="stop-color:#F37521"/>
			<stop  offset="1" style="stop-color:#D4622A"/>
		</linearGradient>
		<path class="st55" d="M246.6,105.3v10.1h-8.4v34H228v-34h-8.4v-10.1H246.6z"/>
		<linearGradient id="SVGID_12_" gradientUnits="userSpaceOnUse" x1="282.2285" y1="168.9172" x2="282.2285" y2="54.2961">
			<stop  offset="0" style="stop-color:#F69453"/>
			<stop  offset="0.5" style="stop-color:#F37521"/>
			<stop  offset="1" style="stop-color:#D4622A"/>
		</linearGradient>
		<path class="st56" d="M282.2,105.4c3,0,5.9,0.6,8.6,1.7c2.7,1.2,5,2.7,7,4.7c2,2,3.6,4.3,4.7,7c1.2,2.7,1.7,5.5,1.7,8.6
			c0,3-0.6,5.9-1.7,8.6c-1.2,2.7-2.7,5-4.7,7c-2,2-4.3,3.5-7,4.7c-2.7,1.2-5.5,1.7-8.6,1.7c-3,0-5.9-0.6-8.6-1.7
			c-2.7-1.2-5-2.7-7-4.7c-2-2-3.5-4.3-4.7-7c-1.2-2.7-1.7-5.5-1.7-8.6c0-3,0.6-5.9,1.7-8.6c1.2-2.7,2.7-5,4.7-7s4.3-3.5,7-4.7
			C276.3,106,279.2,105.4,282.2,105.4z M282.2,139.3c1.6,0,3.2-0.3,4.6-0.9c1.4-0.6,2.7-1.5,3.8-2.5c1.1-1.1,1.9-2.3,2.5-3.8
			c0.6-1.4,0.9-3,0.9-4.6c0-1.6-0.3-3.2-0.9-4.6c-0.6-1.4-1.5-2.7-2.5-3.8c-1.1-1.1-2.3-1.9-3.8-2.5c-1.4-0.6-3-0.9-4.6-0.9
			c-1.6,0-3.2,0.3-4.6,0.9c-1.4,0.6-2.7,1.5-3.8,2.5c-1.1,1.1-1.9,2.3-2.5,3.8c-0.6,1.4-0.9,3-0.9,4.6c0,1.6,0.3,3.2,0.9,4.6
			c0.6,1.4,1.5,2.7,2.5,3.8c1.1,1.1,2.3,1.9,3.8,2.5C279.1,139,280.6,139.3,282.2,139.3z"/>
		<linearGradient id="SVGID_13_" gradientUnits="userSpaceOnUse" x1="324.8599" y1="168.9172" x2="324.8599" y2="54.2961">
			<stop  offset="0" style="stop-color:#F69453"/>
			<stop  offset="0.5" style="stop-color:#F37521"/>
			<stop  offset="1" style="stop-color:#D4622A"/>
		</linearGradient>
		<path class="st57" d="M324.8,139.1c1.5,0,2.7,0.5,3.7,1.5c1,1,1.5,2.2,1.5,3.7s-0.5,2.7-1.5,3.7c-1,1-2.3,1.5-3.7,1.5
			c-1.4,0-2.7-0.5-3.7-1.5c-1-1-1.5-2.2-1.5-3.7s0.5-2.7,1.5-3.7C322.2,139.6,323.4,139.1,324.8,139.1z M319.8,134.3v-29.7h10.1
			v29.7H319.8z"/>
	</g>
	<g>
		<path class="st58" d="M245.4,305.7c0,0-9.5-0.2-12.7,0.3c-3.1,0.5-8,1.2-9.4,6.8c0,0-1,0.4-1.1,1.2c-0.1,0.8-0.4,3.6,0.2,5.8
			l75.7,10.6l4.4-3c0,0,0.5-0.7,0.6-1.4c0.1-0.7,0.3-2.6,0.2-2.8c-0.1-0.2-0.7-1-1.5-1.7c0,0,0.6-1.9,0.3-3.8c-0.3-2-0.6-4-2.4-4.3
			L245.4,305.7z"/>
		
			<linearGradient id="SVGID_14_" gradientUnits="userSpaceOnUse" x1="-50.5493" y1="637.9559" x2="-50.5493" y2="649.7634" gradientTransform="matrix(0.9903 0.1391 -0.1391 0.9903 402.4456 -311.8427)">
			<stop  offset="0" style="stop-color:#FFD42B"/>
			<stop  offset="1" style="stop-color:#FFBA00"/>
		</linearGradient>
		<path class="st59" d="M224.9,309.4c-0.7,0.9-1.2,1.9-1.6,3.3c0,0-1,0.4-1.1,1.2c-0.1,0.8-0.4,3.6,0.2,5.8l75.7,10.6l4.4-3
			c0,0,0.5-0.7,0.6-1.4c0.1-0.7,0.3-2.6,0.2-2.8c-0.1-0.2-0.7-1-1.5-1.7c0,0,0.1-0.5,0.3-1.2L224.9,309.4z"/>
		<g>
			<path class="st60" d="M225,309.3c-0.1,0.1-0.1,0.1-0.2,0.2l4.5,0.6c0.4,0.1,1.9-0.2,3.1-0.6c1.2-0.4,8.8-1.8,10.9-2
				c1.6-0.2,3.1-1,3.8-1.6l-0.3,0c-0.8,0.6-2.1,1.3-3.6,1.5c-2.1,0.2-9.7,1.7-10.9,2c-1.2,0.4-2.6,0.6-3,0.5L225,309.3z"/>
			<path class="st60" d="M274.1,327c0.7-1.6,2.5-6.3,3-9.5c0.5-3.7,0.4-6-1.2-7.5l-0.4-0.1c1.8,1.4,1.9,3.7,1.4,7.5
				c-0.4,3.3-2.3,8-3,9.5L274.1,327z"/>
			<path class="st60" d="M247.8,309.7c0.6-2,2.6-2.8,3.9-3.1l-0.5-0.1c-1.3,0.4-3,1.3-3.6,3.1c-0.5,1.8-2.2,7.9-1.7,13.4l0.2,0
				C245.6,317.6,247.2,311.5,247.8,309.7z"/>
		</g>
		<path class="st9" d="M301.8,326.7c-0.3,0-1-0.1-1.4-1.2l0,0c-1.2-2.9-3.8-5.2-7.2-5.6c-4.5-0.6-8.7,2.2-10,6.4l0,0
			c-0.3,0.8-1.2,1.7-1.9,1.6c-0.7-0.1-35.9-5-37.6-5.3c-1.7-0.2-1.5-2.1-1.5-2.1l0,0c-0.1-4.4-3.3-8.3-7.9-8.9
			c-5-0.7-9.6,2.8-10.3,7.8c0,0.1,0,0.2,0,0.3c-0.4-0.1-0.8-0.1-0.9-0.1c-0.2,0-0.8-0.4-0.8-0.4s-0.2,1.1-0.2,1.5s0.9,1.6,2,1.8
			l0.3,0l15.9,2.2l0.9,0.1l41.8,5.9l1.6,0.2l11.6,1.6c0,0,2.2-0.2,3.6-1l0,0c0,0,1.4-0.7,1.7-1.1c0.3-0.5,0.7-1.3,0.8-1.6
			s0.4-2,0.4-2S302.2,326.7,301.8,326.7z"/>
		<g>
			
				<ellipse transform="matrix(0.1391 -0.9903 0.9903 0.1391 -116.9213 506.8293)" class="st61" cx="233" cy="320.7" rx="7.1" ry="7.1"/>
			
				<ellipse transform="matrix(0.1391 -0.9903 0.9903 0.1391 -116.9213 506.8293)" class="st62" cx="233" cy="320.7" rx="4.8" ry="4.8"/>
			
				<ellipse transform="matrix(0.1391 -0.9903 0.9903 0.1391 -74.3937 572.2982)" class="st61" cx="292" cy="328.9" rx="7.1" ry="7.1"/>
			
				<ellipse transform="matrix(0.1391 -0.9903 0.9903 0.1391 -74.3938 572.2982)" class="st62" cx="292" cy="328.9" rx="4.8" ry="4.8"/>
		</g>
		<path class="st27" d="M228.4,310.3c-1.1,1.4-2.7,2.4-3.6,2.3c-0.9-0.1-0.8-1.4,0.2-2.7c1.1-1.4,2.7-2.4,3.6-2.3
			C229.5,307.7,229.4,308.9,228.4,310.3z"/>
		<path class="st9" d="M245.4,305.7c0,0-0.2,1.2,1.1,1.4s53.3,6.2,53.3,6.2s0-0.5-0.4-1.2s-3.7-8-4.7-8.3
			c-0.9-0.4-14.9-2.8-18.5-3.3c-3.6-0.5-17.9-2.1-18.9-1.9C256.3,298.8,249.2,302.5,245.4,305.7z"/>
		<g>
			<path class="st63" d="M277.8,310.8l0.1-9.6l-1.7,0l-2.3,9.2C275.2,310.5,276.5,310.6,277.8,310.8z"/>
			<path class="st63" d="M251.7,307.7c1.7-1.9,6.6-7.1,9.5-8.6l-3-0.1c0,0-6.4,4.8-10.2,8.3C248.8,307.4,250.1,307.5,251.7,307.7z"
				/>
			<path class="st63" d="M299.3,312.1c-0.4-0.7-3.7-8-4.7-8.3c-0.3-0.1-1.6-0.4-3.4-0.7l-0.8,0l4.1,9.6c3.2,0.4,5.2,0.6,5.2,0.6
				S299.7,312.8,299.3,312.1z"/>
		</g>
		<path class="st64" d="M255.9,299.2c0,0,1.1-1.2,4-0.9s14.7,1.2,22.7,2.4c8,1.2,10.3,1.9,11.1,2c0.8,0.1,3.9,0.8,3.9,0.9
			c0,0.2-2,0.6-2.5,0.6C294.5,304.2,279.6,301.7,255.9,299.2z"/>
		
			<ellipse transform="matrix(0.1391 -0.9903 0.9903 0.1391 -76.0566 538.6011)" class="st60" cx="271.7" cy="313" rx="1.6" ry="1.6"/>
		
			<ellipse transform="matrix(0.1391 -0.9903 0.9903 0.1391 -76.0566 538.6011)" class="st65" cx="271.7" cy="313" rx="0.5" ry="2.8"/>
		<path class="st66" d="M301.5,320.2c0,0.7-0.6,1.2-1.3,1.1l0,0c-0.7-0.1-1.3-0.8-1.3-1.5l-0.1-3.5c0-0.7,0.6-1.2,1.3-1.1l0,0
			c0.7,0.1,1.3,0.8,1.3,1.5L301.5,320.2z"/>
	</g>
	<polygon class="st67" points="295.7,330.6 293.3,329.2 296,328.9 295.9,327.9 293.1,328.1 295.2,326.2 294.9,325.9 292.9,327.8 
		293.4,325.1 292.4,324.8 291.8,327.7 290.6,325 290.2,325.2 291.4,327.8 289,326.4 288.5,327.3 290.9,328.7 288.1,329.1 
		288.1,329.5 290.9,329.1 288.8,331 289.5,331.8 291.7,329.9 291.1,332.7 291.5,332.8 292.1,330 293.2,332.6 294.2,332.1 293,329.5 
		295.5,330.9 	"/>
	<polygon class="st67" points="236.9,322.5 234.5,321.2 237.2,320.9 237.1,319.8 234.3,320.1 236.4,318.1 236.1,317.8 234.1,319.8 
		234.7,317 233.6,316.8 233,319.6 231.8,317 231.4,317.1 232.6,319.7 230.2,318.3 229.7,319.2 232.1,320.7 229.3,321 229.3,321.4 
		232.1,321.1 230,322.9 230.8,323.7 232.9,321.8 232.3,324.7 232.7,324.7 233.3,322 234.4,324.5 235.4,324.1 234.2,321.5 
		236.7,322.9 	"/>
</g>
</svg>
