<?xml version="1.0" encoding="utf-8"?>
<!-- Generator: Adobe Illustrator 21.0.1, SVG Export Plug-In . SVG Version: 6.00 Build 0)  -->
<svg version="1.1" id="Layer_1" xmlns="http://www.w3.org/2000/svg" xmlns:xlink="http://www.w3.org/1999/xlink" x="0px" y="0px"
	 viewBox="0 0 100 40" style="enable-background:new 0 0 100 40; fill:515151;" xml:space="preserve">
<style type="text/css">
	.st0{fill:none;}
	.st1{fill:#515252;}
</style>
<g>
	<polygon class="st0" points="5,21.6 5,21.6 9.6,14.6 16.5,14.6 16.5,14.6 9.6,14.6 	"/>
	<ellipse transform="matrix(0.4784 -0.8782 0.8782 0.4784 13.5571 71.6362)" class="st0" cx="67.1" cy="24.4" rx="1.7" ry="1.7"/>
	<ellipse transform="matrix(0.4784 -0.8782 0.8782 0.4784 14.4829 96.5018)" class="st0" cx="88.5" cy="36.1" rx="1.7" ry="1.7"/>
	<polygon class="st0" points="81,19.8 75,20.1 83.4,24.7 85.4,22.1 	"/>
	<path class="st0" d="M9.6,30.6c-0.8,0-1.4,0.6-1.4,1.4c0,0.1,0,0.1,0,0.2c0.1,0.7,0.7,1.2,1.4,1.2c0.7,0,1.3-0.5,1.4-1.2
		c0-0.1,0-0.1,0-0.2C11,31.3,10.4,30.6,9.6,30.6z"/>
	<polygon class="st0" points="86.2,22.6 84.3,25.2 88.6,27.5 90.1,24.7 	"/>
	<polygon class="st0" points="90.9,25.1 89.4,28 92.5,29.7 92.1,25.8 	"/>
	<path class="st0" d="M31.3,30.6c-0.8,0-1.4,0.6-1.4,1.4c0,0,0,0,0,0c0,0.8,0.6,1.4,1.4,1.4c0.8,0,1.4-0.6,1.4-1.4c0,0,0,0,0-0.1
		C32.7,31.2,32.1,30.6,31.3,30.6z"/>
	<path class="st0" d="M43.4,30.6c-0.7,0-1.3,0.6-1.4,1.3c0,0.1,0,0.1,0,0.2c0,0.8,0.6,1.4,1.4,1.4c0.8,0,1.4-0.6,1.4-1.4
		c0-0.1,0-0.1,0-0.2C44.7,31.2,44.1,30.6,43.4,30.6z"/>
	<path class="st1" d="M97.2,32.2l-3.6-2l0.1,0.6l-0.9,0.1l-0.1-1.3L89.4,28l-0.2,0.4L88.4,28l0.2-0.4l-4.3-2.4l-0.8,1l-0.8-0.6
		l0.7-0.9L75,20.1l-1.6,0.1l-0.1-0.9l-10.2-2.6c-0.5-0.1-1,0.1-1.3,0.6L61,18.9c-0.3-0.1-0.7,0.1-0.8,0.5L60,20.5
		c-0.1,0.7,0.2,1.3,0.8,1.7l2.2,1.2c0.1-0.3,0.2-0.7,0.4-1c1.2-2.2,4-2.9,6.1-1.4c1.2,0.8,1.9,2.3,1.8,3.8c-0.1,1.1-0.5,1.9-1.1,2.6
		l14.2,7.8c0.1-0.3,0.2-0.7,0.4-1c1.2-2.2,4-2.9,6.1-1.4c1.2,0.8,1.9,2.3,1.8,3.8c-0.1,1.1-0.5,1.9-1.1,2.6l1.2,0.7l2.4-0.9
		c0.6-0.2,1-0.6,1.3-1.1l1-1.9c0.1-0.2,0.2-0.4,0.2-0.7l0.2-1.1C98.1,33.2,97.8,32.5,97.2,32.2z M97.1,33L97.1,33L97.1,33L97.1,33z"
		/>
	<path class="st1" d="M89.9,33.3c-1.5-0.8-3.4-0.3-4.2,1.2c-0.8,1.5-0.3,3.4,1.2,4.2c1.5,0.8,3.4,0.3,4.2-1.2S91.4,34.2,89.9,33.3z
		 M89.9,36.9c-0.4,0.8-1.4,1.1-2.3,0.7c-0.8-0.4-1.1-1.4-0.7-2.3c0.4-0.8,1.4-1.1,2.3-0.7C90.1,35,90.4,36.1,89.9,36.9z"/>
	<path class="st1" d="M68.6,21.7c-1.5-0.8-3.4-0.3-4.2,1.2c-0.8,1.5-0.3,3.4,1.2,4.2c1.5,0.8,3.4,0.3,4.2-1.2
		C70.6,24.4,70.1,22.5,68.6,21.7z M68.5,25.2c-0.4,0.8-1.4,1.1-2.3,0.7c-0.8-0.4-1.1-1.4-0.7-2.3c0.4-0.8,1.4-1.1,2.3-0.7
		C68.7,23.4,69,24.4,68.5,25.2z"/>
	<polygon points="97.1,33 97.2,33 97.1,32.9 	"/>
	<path class="st1" d="M75,20.1l6-0.4l4.3,2.4l-2,2.6l0.8,0.5l2-2.6l3.9,2.1l0.1-0.2L91,25l-0.1,0.2l1.2,0.7l0.4,3.9l1,0.6l-0.3-2.6
		l-0.2-1.7c-0.1-0.5-0.3-0.9-0.7-1.1l-10.5-5.7c-0.4-0.2-0.9-0.3-1.4-0.3l-7.1,0.4l0,0.1l0.4,0.1L75,20.1z"/>
	<polygon class="st1" points="92.6,30.9 93.6,30.8 93.5,30.2 92.5,29.7 	"/>
	<polygon class="st1" points="75,20.1 73.7,19.4 73.4,19.4 73.4,20.2 	"/>
	<polygon class="st1" points="82.7,25.6 83.5,26.2 84.3,25.2 83.4,24.7 	"/>
	<rect x="88.1" y="25.9" transform="matrix(0.4784 -0.8782 0.8782 0.4784 23.6833 92.5584)" class="st1" width="3.2" height="0.9"/>
	<rect x="88.6" y="27.5" transform="matrix(0.4784 -0.8782 0.8782 0.4784 21.8055 92.6283)" class="st1" width="0.5" height="0.9"/>
	<rect x="90.5" y="24.4" transform="matrix(0.4784 -0.8782 0.8782 0.4784 25.4091 92.4931)" class="st1" width="0.2" height="0.9"/>
	<path class="st1" d="M9.6,27.4c-2.6,0-4.6,2.1-4.6,4.6c0,0.1,0,0.2,0,0.3c0.1,2.4,2.2,4.4,4.6,4.4c2.5,0,4.6-2,4.6-4.5
		c0,0,0-0.1,0-0.1C14.2,29.5,12.1,27.4,9.6,27.4z M11,32.3c-0.1,0.7-0.7,1.2-1.4,1.2c-0.7,0-1.3-0.5-1.4-1.2c0-0.1,0-0.1,0-0.2
		c0-0.8,0.6-1.4,1.4-1.4c0.8,0,1.4,0.6,1.4,1.4C11,32.1,11,32.2,11,32.3z"/>
	<path class="st1" d="M31.3,27.4c-2.6,0-4.6,2.1-4.6,4.6c0,0,0,0,0,0c0,2.6,2.1,4.6,4.6,4.6c2.6,0,4.6-2.1,4.6-4.6c0,0,0-0.1,0-0.1
		C35.9,29.5,33.8,27.4,31.3,27.4z M31.3,33.5c-0.8,0-1.4-0.6-1.4-1.4c0,0,0,0,0,0c0-0.8,0.7-1.4,1.4-1.4c0.8,0,1.4,0.6,1.4,1.4
		c0,0,0,0,0,0.1C32.7,32.9,32.1,33.5,31.3,33.5z"/>
	<path class="st1" d="M43.4,27.4c-2.5,0-4.6,2-4.6,4.5c0,0,0,0.1,0,0.1c0,2.6,2.1,4.6,4.6,4.6c2.6,0,4.6-2.1,4.6-4.6
		c0-0.1,0-0.2,0-0.2C47.9,29.4,45.9,27.4,43.4,27.4z M43.4,33.5c-0.8,0-1.4-0.6-1.4-1.4c0-0.1,0-0.1,0-0.2c0.1-0.7,0.7-1.3,1.4-1.3
		c0.7,0,1.3,0.5,1.4,1.2c0,0.1,0,0.1,0,0.2C44.8,32.9,44.2,33.5,43.4,33.5z"/>
	<path class="st1" d="M50.6,24.5L50.6,24.5l-31.1,0V10.8H8L1.2,21.6v10.8l2.7,0c0-0.1,0-0.2,0-0.3c0-3.2,2.6-5.7,5.7-5.7
		c3.2,0,5.7,2.6,5.7,5.7c0,0,0,0.1,0,0.1l10.3-0.1c0,0,0,0,0,0c0-3.2,2.6-5.7,5.7-5.7c3.1,0,5.7,2.5,5.7,5.6l0.7,0
		c0.1-3.1,2.6-5.6,5.7-5.6c3.1,0,5.6,2.4,5.7,5.5l1.6,0L48,24.5L50.6,24.5z M16.5,14.6v6.9v0H5l0,0h0l4.6-6.9L16.5,14.6L16.5,14.6z"
		/>
	<rect x="5" y="21.6" width="11.5" height="0"/>
	<polygon class="st1" points="50.6,31.8 55.2,24.5 50.6,24.5 	"/>
	<polygon class="st1" points="48,24.5 50.6,31.8 50.6,24.5 	"/>
	<polygon class="st1" points="55.2,0.8 51.6,0.8 21.3,19 21.3,22.7 55.2,22.7 55.2,18.1 36.6,18.1 53.8,2.2 53.7,2 	"/>
	<polygon class="st1" points="56.4,6.1 56.8,6.4 55.2,0.8 53.8,2.2 55.2,6.6 55.2,6.6 	"/>
	<polygon class="st1" points="53.7,2 53.8,2.2 55.2,0.8 	"/>
	<path class="st1" d="M60.9,15.4c0.2-1-0.1-2-0.1-2s-0.9,0.2-1,0.8c0,0,0.3,1-0.7,1.4c-1.1,0.4-1.6-0.8-1.2-1.4
		c0.4-0.6,1.1-0.7,0.9-1.4c-0.2-0.7-0.8-2.2-0.8-2.2l1-1.7l-0.4-1.2l-1.3,0.5l0.2,0.8l-1.4,0.5l-0.3-0.8l-1.6,0.6l0.4,1.2l2.1,0.5
		l0.6,1.7c0,0-1.6,0.8-0.9,2.6c0.6,1.8,2.6,1.6,2.7,1.5C59.4,16.9,60.7,16.4,60.9,15.4z"/>
	<polygon class="st1" points="56.1,9.6 57.5,9.1 57.3,8.3 55.9,8.8 	"/>
	<polygon class="st1" points="55.2,6.6 54.3,9.4 55.9,8.8 	"/>
	<polygon class="st1" points="58.6,7.8 56.8,6.4 57.3,8.3 	"/>
	<polygon class="st1" points="57.3,8.3 56.8,6.4 56.4,6.1 55.2,6.6 55.2,6.6 55.9,8.8 	"/>
</g>
</svg>
